<svg version="1.1"
      xmlns="http://www.w3.org/2000/svg"
      xmlns:xlink="http://www.w3.org/1999/xlink"  id="snapshot-33366" width="250" height="250" viewBox="0 0 250 250"><desc>This image was made on Patterninja.com</desc><defs>
<!-- image 39488 -->
<g id="transformed-39488" data-image="39488" transform="translate(-49.24428900898052, -49.24428900898052) rotate(23, 49.24428900898052, 49.24428900898052)"><g><svg version="1.1" width="98.48857801796105px" height="98.48857801796105px" viewBox="0 0 98.48857801796105 98.48857801796105"><g id="original-39488"><svg xmlns="http://www.w3.org/2000/svg" viewBox="0 0 400 400" xmlns:xlink="http://www.w3.org/1999/xlink" version="1.1" preserveAspectRatio="xMidYMid meet">
  <path d="M265 159.8c-.1-.1-.1-.2-.2-.3l-.4-.4c-10.9-10.6-24.2-18.6-39.2-23V121c0-9.4-7.6-17-17-17h-20c-9.4 0-17 7.6-17 17v19c0 2.8 2.2 5 5 5s5-2.2 5-5v-19c0-3.9 3.1-7 7-7h20c3.9 0 7 3.1 7 7v12.8c-5.4-1-10.9-1.5-16.6-1.5-3.3 0-6.5.2-9.8.5-2.7.3-4.7 2.7-4.5 5.5.3 2.7 2.7 4.7 5.5 4.5 1.2-.1 2.4-.2 3.7-.3L114.7 219c1.3-14.5 6.3-28.4 14.7-40.4 9.6-13.8 22.9-24.4 38.5-30.5 2.6-1 3.8-3.9 2.8-6.5s-3.9-3.8-6.5-2.8c-17.5 6.8-32.4 18.6-43.1 34.1-11 15.8-16.8 34.4-16.8 53.7 0 52 42.3 94.2 94.2 94.2 52 0 94.2-42.3 94.2-94.2.1-26.1-10.5-49.7-27.7-66.8zM164.1 303.4l112.3-109c2.7 6.6 4.7 13.7 5.6 21-.1 0-.1.1-.2.1l-97 94.1c-7.2-1.1-14.2-3.2-20.7-6.2zm-23.9-16.1c.1-.1.3-.2.4-.3L261 170.1c4.1 4.5 7.7 9.5 10.7 14.9l-117 113.5c-5.2-3.2-10-7-14.5-11.2zM114.6 233l92.9-90.2c7.3.8 14.3 2.5 20.9 5L119 254.1c-2.4-6.7-3.8-13.8-4.4-21.1zm7.9 29.7c1.2 0 2.4-.5 3.4-1.4l112.3-109c5.6 3 10.9 6.7 15.7 10.9L133.7 279.8c-.1.1-.1.2-.2.3-4.3-5.3-8.1-11.2-11-17.4zm76.1 48.1h-.5l84.7-82.2c-1.1 45.6-38.5 82.2-84.2 82.2z" fill="rgba(221, 221, 221, 1)" stroke="none"/>
  <path d="M184.2 101.3c2.8 0 5-2.2 5-5 0-5.5 4.5-10 10-10s10 4.5 10 10c0 2.8 2.2 5 5 5s5-2.2 5-5c0-11-9-20-20-20s-20 9-20 20c0 2.8 2.3 5 5 5z" fill="rgba(221, 221, 221, 1)" stroke="none"/>
</svg>
</g></svg></g></g>
<!-- /image 39488 -->

<!-- image 75601 -->
<g id="transformed-75601" data-image="75601" transform="translate(78.37636200343877, 83.37636200343877) rotate(44, 51.62363799656122, 51.62363799656123)"><g><svg version="1.1" width="103.24727599312244px" height="103.24727599312246px" viewBox="0 0 103.24727599312244 103.24727599312246"><g id="original-75601"><svg xmlns="http://www.w3.org/2000/svg" viewBox="0 0 400 400" xmlns:xlink="http://www.w3.org/1999/xlink" version="1.1" preserveAspectRatio="xMidYMid meet">
  <path d="M226.4 136.7V121c0-9.4-7.6-17-17-17h-20c-9.4 0-17 7.6-17 17v19c0 2.8 2.2 5 5 5s5-2.2 5-5v-19c0-3.9 3.1-7 7-7h20c3.9 0 7 3.1 7 7v13.3c-5.5-1-11.2-1.5-17-1.5-3.3 0-6.5.2-9.8.5-2.7.3-4.7 2.7-4.5 5.5.3 2.7 2.7 4.7 5.5 4.5 2.9-.3 5.8-.4 8.7-.4 46.5 0 84.2 37.8 84.2 84.2 0 46.5-37.8 84.2-84.2 84.2s-84.2-37.8-84.2-84.2c0-17.3 5.2-33.9 15-48 9.6-13.8 22.9-24.4 38.5-30.5 2.6-1 3.8-3.9 2.8-6.5s-3.9-3.8-6.5-2.8c-17.5 6.8-32.4 18.6-43.1 34.1-11 15.8-16.8 34.4-16.8 53.7 0 52 42.3 94.2 94.2 94.2 52 0 94.2-42.3 94.2-94.2.3-42.7-28.1-78.8-67-90.4z" fill="rgba(221, 221, 221, 1)" stroke="none"/>
  <path d="M269.9 205c2.5-1.2 3.6-4.1 2.4-6.6-8.4-17.9-22.5-33.1-39.7-42.7-2.4-1.3-5.5-.5-6.8 1.9-1.3 2.4-.5 5.5 1.9 6.8 15.4 8.6 28 22.1 35.5 38.2.8 1.8 2.7 2.9 4.5 2.9.8-.1 1.5-.2 2.2-.5z" fill="rgba(221, 221, 221, 1)" stroke="none"/>
  <circle cx="217.2" cy="154.6" r="5.9" fill="rgba(221, 221, 221, 1)" stroke="none"/>
  <circle cx="176.1" cy="275" r="15" fill="rgba(221, 221, 221, 1)" stroke="none"/>
  <circle cx="213.4" cy="262.7" r="5.3" fill="rgba(221, 221, 221, 1)" stroke="none"/>
  <circle cx="202.1" cy="211" r="16" fill="rgba(221, 221, 221, 1)" stroke="none"/>
  <circle cx="258.4" cy="244.6" r="9.4" fill="rgba(221, 221, 221, 1)" stroke="none"/>
  <circle cx="157" cy="197.5" r="10.9" fill="rgba(221, 221, 221, 1)" stroke="none"/>
  <path d="M184.4 101.3c2.8 0 5-2.2 5-5 0-5.5 4.5-10 10-10s10 4.5 10 10c0 2.8 2.2 5 5 5s5-2.2 5-5c0-11-9-20-20-20s-20 9-20 20c0 2.8 2.3 5 5 5z" fill="rgba(221, 221, 221, 1)" stroke="none"/>
</svg>
</g></svg></g></g>
<!-- /image 75601 -->

<!-- image 61323 -->
<g id="transformed-61323" data-image="61323" transform="translate(196.4452666261164, 71.44526662611635) rotate(338, 52.55473337388361, 52.55473337388365)"><g><svg version="1.1" width="105.10946674776721px" height="105.1094667477673px" viewBox="0 0 105.10946674776721 105.1094667477673"><g id="original-61323"><svg xmlns="http://www.w3.org/2000/svg" viewBox="0 0 400 400" xmlns:xlink="http://www.w3.org/1999/xlink" version="1.1" preserveAspectRatio="xMidYMid meet">
  <path d="M225.7 137.3v-15.7c0-9.4-7.6-17-17-17h-20c-9.4 0-17 7.6-17 17v19c0 2.8 2.2 5 5 5s5-2.2 5-5v-19c0-3.9 3.1-7 7-7h20c3.9 0 7 3.1 7 7v13.3c-5.5-1-11.2-1.5-17-1.5-3.3 0-6.5.2-9.8.5-2.7.3-4.7 2.7-4.5 5.5.3 2.7 2.7 4.7 5.5 4.5 2.9-.3 5.8-.4 8.7-.4 37.4 0 69.1 24.5 80.1 58.2H118.6c2.5-7.8 6.2-15.2 10.9-22 9.6-13.8 22.9-24.4 38.5-30.5 2.6-1 3.8-3.9 2.8-6.5s-3.9-3.8-6.5-2.8c-17.5 6.8-32.4 18.6-43.1 34.1-11 15.8-16.8 34.4-16.8 53.7 0 52 42.3 94.2 94.2 94.2s94.2-42.3 94.2-94.2c.2-42.7-28.2-78.7-67.1-90.4zm57.3 90.3c0 8-1.1 15.7-3.2 23h-17.5l19.7-35.8c.7 4.2 1 8.5 1 12.8zm-10.6-16l-18.6 33.9-19.8-33.9h38.4zm-27.3 39h-39.7l20.3-33.3 19.4 33.3zm-27.7-39l-21 34.5-21.8-34.5h42.8zm-30 39h-38.9l17.9-33.2 21 33.2zm-29.1-39l-18.2 33.7-18.8-33.7h37zm-26.7 39h-13.9c-2.1-7.3-3.2-15-3.2-23 0-2.4.1-4.8.3-7.1l16.8 30.1zm67.1 61.3c-34.7 0-64.6-21.1-77.5-51.2h154.9c-12.7 30-42.6 51.2-77.4 51.2z" fill="rgba(221, 221, 221, 1)" stroke="none"/>
  <path d="M258.2 195.7c.9 1.7 2.6 2.6 4.4 2.6.8 0 1.6-.2 2.4-.6 2.4-1.3 3.3-4.4 2-6.8-8-14.6-20.8-26.6-35.8-33.7-2.5-1.2-5.5-.1-6.7 2.4-1.2 2.5-.1 5.5 2.4 6.7 13.1 6.1 24.2 16.6 31.3 29.4z" fill="rgba(221, 221, 221, 1)" stroke="none"/>
  <circle cx="215.1" cy="156.2" r="5.9" fill="rgba(221, 221, 221, 1)" stroke="none"/>
  <path d="M183.6 102c2.8 0 5-2.2 5-5 0-5.5 4.5-10 10-10s10 4.5 10 10c0 2.8 2.2 5 5 5s5-2.2 5-5c0-11-9-20-20-20s-20 9-20 20c0 2.7 2.2 5 5 5z" fill="rgba(221, 221, 221, 1)" stroke="none"/>
</svg>
</g></svg></g></g>
<!-- /image 61323 -->

<!-- image 66673 -->
<g id="transformed-66673" data-image="66673" transform="translate(78.34116392825948, -49.658836071740545) rotate(334, 49.65883607174053, 49.658836071740545)"><g><svg version="1.1" width="99.31767214348106px" height="99.31767214348109px" viewBox="0 0 99.31767214348106 99.31767214348109"><g id="original-66673"><svg xmlns="http://www.w3.org/2000/svg" viewBox="0 0 400 400" xmlns:xlink="http://www.w3.org/1999/xlink" version="1.1" preserveAspectRatio="xMidYMid meet">
  <path d="M225.6 136.7V121c0-9.4-7.6-17-17-17h-20c-9.4 0-17 7.6-17 17v19c0 2.8 2.2 5 5 5s5-2.2 5-5v-19c0-3.9 3.1-7 7-7h20c3.9 0 7 3.1 7 7v13.3c-5.5-1-11.2-1.5-17-1.5-3.3 0-6.5.2-9.8.5-2.7.3-4.7 2.7-4.5 5.5.3 2.7 2.7 4.7 5.5 4.5 2.9-.3 5.8-.4 8.7-.4 46.5 0 84.2 37.8 84.2 84.2 0 46.5-37.8 84.2-84.2 84.2-46.5 0-84.2-37.8-84.2-84.2 0-17.3 5.2-33.9 15-48 9.6-13.8 22.9-24.4 38.5-30.5 2.6-1 3.8-3.9 2.8-6.5s-3.9-3.8-6.5-2.8c-17.5 6.8-32.4 18.6-43.1 34.1-11 15.8-16.8 34.4-16.8 53.7 0 52 42.3 94.2 94.2 94.2 52 0 94.2-42.3 94.2-94.2.2-42.7-28.2-78.8-67-90.4z" fill="rgba(221, 221, 221, 1)" stroke="none"/>
  <path d="M262.4 202.5c.8 1.8 2.7 2.9 4.5 2.9.7 0 1.4-.2 2.1-.5 2.5-1.2 3.6-4.1 2.4-6.6-8.4-17.9-22.5-33.1-39.7-42.7-2.4-1.3-5.5-.5-6.8 1.9-1.3 2.4-.5 5.5 1.9 6.8 15.5 8.6 28.1 22.2 35.6 38.2z" fill="rgba(221, 221, 221, 1)" stroke="none"/>
  <circle cx="216.3" cy="154.6" r="5.9" fill="rgba(221, 221, 221, 1)" stroke="none"/>
  <path d="M183.6 101.3c2.8 0 5-2.2 5-5 0-5.5 4.5-10 10-10s10 4.5 10 10c0 2.8 2.2 5 5 5s5-2.2 5-5c0-11-9-20-20-20s-20 9-20 20c0 2.8 2.2 5 5 5z" fill="rgba(221, 221, 221, 1)" stroke="none"/>
</svg>
</g></svg></g></g>
<!-- /image 66673 -->
</defs><rect x="0" y="0" width="250" height="250" fill="rgba(108, 139, 108, 1)"></rect><use xlink:href="#transformed-39488" transform="translate(-250, -250)"></use><use xlink:href="#transformed-39488" transform="translate(0, -250)"></use><use xlink:href="#transformed-39488" transform="translate(250, -250)"></use><use xlink:href="#transformed-39488" transform="translate(-250, 0)"></use><use xlink:href="#transformed-39488" transform="translate(0, 0)"></use><use xlink:href="#transformed-39488" transform="translate(250, 0)"></use><use xlink:href="#transformed-39488" transform="translate(-250, 250)"></use><use xlink:href="#transformed-39488" transform="translate(0, 250)"></use><use xlink:href="#transformed-39488" transform="translate(250, 250)"></use><use xlink:href="#transformed-75601" transform="translate(-250, -250)"></use><use xlink:href="#transformed-75601" transform="translate(0, -250)"></use><use xlink:href="#transformed-75601" transform="translate(250, -250)"></use><use xlink:href="#transformed-75601" transform="translate(-250, 0)"></use><use xlink:href="#transformed-75601" transform="translate(0, 0)"></use><use xlink:href="#transformed-75601" transform="translate(250, 0)"></use><use xlink:href="#transformed-75601" transform="translate(-250, 250)"></use><use xlink:href="#transformed-75601" transform="translate(0, 250)"></use><use xlink:href="#transformed-75601" transform="translate(250, 250)"></use><use xlink:href="#transformed-61323" transform="translate(-250, -250)"></use><use xlink:href="#transformed-61323" transform="translate(0, -250)"></use><use xlink:href="#transformed-61323" transform="translate(250, -250)"></use><use xlink:href="#transformed-61323" transform="translate(-250, 0)"></use><use xlink:href="#transformed-61323" transform="translate(0, 0)"></use><use xlink:href="#transformed-61323" transform="translate(250, 0)"></use><use xlink:href="#transformed-61323" transform="translate(-250, 250)"></use><use xlink:href="#transformed-61323" transform="translate(0, 250)"></use><use xlink:href="#transformed-61323" transform="translate(250, 250)"></use><use xlink:href="#transformed-66673" transform="translate(-250, -250)"></use><use xlink:href="#transformed-66673" transform="translate(0, -250)"></use><use xlink:href="#transformed-66673" transform="translate(250, -250)"></use><use xlink:href="#transformed-66673" transform="translate(-250, 0)"></use><use xlink:href="#transformed-66673" transform="translate(0, 0)"></use><use xlink:href="#transformed-66673" transform="translate(250, 0)"></use><use xlink:href="#transformed-66673" transform="translate(-250, 250)"></use><use xlink:href="#transformed-66673" transform="translate(0, 250)"></use><use xlink:href="#transformed-66673" transform="translate(250, 250)"></use></svg>