<svg version="1.1"
      xmlns="http://www.w3.org/2000/svg"
      xmlns:xlink="http://www.w3.org/1999/xlink"  id="snapshot-15388" width="250" height="250" viewBox="0 0 250 250"><desc>This image was made on Patterninja.com</desc><defs>
<!-- image 37750 -->
<g id="transformed-37750" data-image="37750" transform="translate(-37.80186911806539, 100.19813088193462) rotate(322, 42.80186911806539, 42.801869118065376)"><g><svg version="1.1" width="85.60373823613078px" height="85.60373823613075px" viewBox="0 0 85.60373823613078 85.60373823613075"><g id="original-37750"><svg xmlns="http://www.w3.org/2000/svg" viewBox="0 0 400 400" xmlns:xlink="http://www.w3.org/1999/xlink" version="1.1" preserveAspectRatio="xMidYMid meet">
  <path d="M218.9 279.6l3.5-16.7c.4-2.1-.5-4.3-2.4-5.3-.6-.4-15.2-9.8-7.8-45.1 3.4-16.2 1.5-30.9-5.6-42.5-2.6-4.4-5.9-8.2-9.7-11.3.1-.2.1-.4.2-.6 2.1-10-4.4-19.9-14.4-22-9.8-2-19.4 4.1-21.8 13.7-5.8 1.2-11.3 3.6-16.3 7.2-11 7.8-18.6 20.6-22 36.8-7.3 35.1-24.3 38.1-25.2 38.2-2.1.3-3.9 1.8-4.3 3.9l-3.5 16.7c-.6 2.7 1.2 5.4 3.9 5.9l42.6 8.9c.4 8.3 6.4 15.7 14.9 17.4 1.2.2 2.4.4 3.6.4 7.1 0 13.6-4.1 16.7-10.4l41.6 8.7c.3.1.7.1 1 .1 2.4 0 4.5-1.6 5-4zm-38.3-133.7c3.5.7 6 3.5 6.7 6.8-2.8-1.3-5.8-2.3-8.9-2.9-2.1-.4-4.1-.7-6.2-.8 2-2.5 5.2-3.7 8.4-3.1zm-21.2 127.8c-1.9 1.3-4.2 1.7-6.4 1.3-3-.6-5.3-2.7-6.3-5.4l14.2 3c-.5.4-1 .8-1.5 1.1zm-59-23.9l1.8-8.8c7.3-2.6 23.2-11.9 30.1-45.1 6.2-29.9 27.2-39.8 44-36.3 16.9 3.5 32.3 21 26 50.9-4.3 20.9-1.7 34.5 2.2 43l-87.3-18.2c-2.7-.6-5.4 1.2-5.9 3.9-.6 2.7 1.2 5.4 3.9 5.9l96.4 20.1-1.6 7.4-109.6-22.8z" fill="rgba(170, 100, 101, 1)" stroke="none"/>
  <path d="M178.8 176.9c.1 0 11.7 5.3 9.4 30.4-.3 2.8 1.8 5.2 4.5 5.4h.5c2.6 0 4.7-2 5-4.5 3-32.9-14.9-40.3-15.7-40.6-2.6-1-5.5.3-6.5 2.8-1 2.6.2 5.5 2.8 6.5z" fill="rgba(170, 100, 101, 1)" stroke="none"/>
  <path d="M167 172.2l.2.1c.8.4 1.6.6 2.4.6 1.8 0 3.5-1 4.4-2.6.4-.8.6-1.6.6-2.4 0-1.8-1-3.5-2.6-4.4l-.2-.1c-2.4-1.3-5.5-.4-6.8 2-.4.8-.6 1.6-.6 2.4 0 1.8.9 3.5 2.6 4.4z" fill="rgba(170, 100, 101, 1)" stroke="none"/>
  <path d="M306.8 107.8c-1.1-1.4-2.9-2.2-4.7-1.9-.3 0-29.8 3.9-40.1-15.5-1-1.8-3-2.9-5-2.6-2.1.2-3.8 1.8-4.3 3.8 0 .1-3.6 13.9-14.1 19.6-5.9 3.2-13.2 3.3-21.7.3-1.7-.6-3.7-.2-5 1-1.4 1.2-1.9 3.1-1.5 4.9 0 .1 1.3 5.5-1.5 9.6-2 2.9-5.8 4.8-11.3 5.5-2.7.4-4.7 2.9-4.3 5.6.4 2.7 2.9 4.7 5.6 4.3 8.5-1.1 14.6-4.5 18.3-9.9 2.2-3.2 3.1-6.7 3.3-9.7 8.4 1.7 16.1.7 22.8-2.9 7.8-4.2 12.7-11.2 15.5-16.8 6 6.3 14.5 10.4 24.9 12.2 4.3.7 8.3 1 11.6 1-5.8 17.7-3.8 31.1-1.4 39-6.5.3-15.4 1.9-22.8 7.8-6.3 5.1-10.3 12.3-11.8 21.5-8.2-1.2-23.4-1.9-34.6 7-2.2 1.7-2.5 4.9-.8 7 1 1.2 2.4 1.9 3.9 1.9 1.1 0 2.2-.4 3.1-1.1 11.7-9.2 31.3-4.1 31.5-4.1 1.5.4 3 .1 4.2-.8 1.2-.9 2-2.3 2.1-3.8.5-8.9 3.4-15.6 8.7-19.8 9.3-7.5 23.4-5.4 23.5-5.4 2 .3 3.9-.5 5-2.2 1.1-1.7 1.1-3.8 0-5.5-.1-.2-10.5-16.7 1.4-45.1.9-1.5.6-3.4-.5-4.9z" fill="rgba(170, 100, 101, 1)" stroke="none"/>
  <path d="M227.2 165.3c.9 0 1.8-.2 2.6-.7l39.1-23.4c2.4-1.4 3.1-4.5 1.7-6.9-1.4-2.4-4.5-3.1-6.9-1.7L224.6 156c-2.4 1.4-3.1 4.5-1.7 6.9.9 1.5 2.6 2.4 4.3 2.4z" fill="rgba(170, 100, 101, 1)" stroke="none"/>
  <path d="M107.6 105.1c.1.1 12.3 7.3 14.8 19 1.4 6.6-.5 13.6-5.8 20.9-.9 1.2-1.2 2.8-.8 4.2.4 1.5 1.4 2.7 2.8 3.3.1 0 5.5 2.5 11.1 7.2.9.8 2.1 1.2 3.2 1.2 1.4 0 2.8-.6 3.8-1.8 1.8-2.1 1.5-5.3-.6-7-3-2.5-6-4.5-8.4-5.9 4.6-8.1 6.1-16.2 4.4-24.1-1.9-8.7-7.2-15.3-11.8-19.6 7.7-4 14.1-11 18.7-20.5 1.9-3.9 3.3-7.7 4.2-10.9 15.2 10.3 28.4 12.3 36.7 12.2-1.7 5.8-2.9 13.9-.3 21.8s8.3 14.1 17.1 18.3c2.5 1.2 5.5.1 6.7-2.3 1.2-2.5.1-5.5-2.3-6.7-6.2-3-10.1-7-11.9-12.3-3.4-10.4 2.8-22.2 2.8-22.3 1-1.8.7-3.9-.5-5.5-1.3-1.6-3.4-2.2-5.3-1.7-.8.2-19.3 5.2-42.9-14-1.4-1.1-3.3-1.4-5-.8-1.7.7-2.9 2.2-3.1 3.9 0 .3-4.6 29.7-26.1 34.2-2 .4-3.6 2-3.9 4.1-.3 2 .6 4.1 2.4 5.1z" fill="rgba(170, 100, 101, 1)" stroke="none"/>
  <path d="M153.6 100c-2.7.7-4.3 3.4-3.6 6.1l6 22.8c.6 2.2 2.6 3.7 4.8 3.7.4 0 .8-.1 1.3-.2 2.7-.7 4.3-3.4 3.6-6.1l-6-22.8c-.7-2.6-3.4-4.2-6.1-3.5z" fill="rgba(170, 100, 101, 1)" stroke="none"/>
  <path d="M227.8 203.5c-1.1-2.5-4-3.7-6.6-2.6-2.5 1.1-3.7 4-2.6 6.6l45.1 105.8-15-3.5c-2.2-.5-4.5.5-5.5 2.5l-6.7 12.3-11.8-27.7c-1.1-2.5-4-3.7-6.6-2.6-2.5 1.1-3.7 4-2.6 6.6l15.9 37.2c.8 1.8 2.4 2.9 4.4 3h.2c1.8 0 3.5-1 4.4-2.6l9.8-17.9 20.9 4.9c1.8.4 3.8-.2 5-1.6 1.2-1.4 1.5-3.4.8-5.2l-49.1-115.2z" fill="rgba(170, 100, 101, 1)" stroke="none"/>
</svg>
</g></svg></g></g>
<!-- /image 37750 -->

<!-- image 76599 -->
<g id="transformed-76599" data-image="76599" transform="translate(28.94598537270219, 25.94598537270219) rotate(3, 37.05401462729781, 37.05401462729781)"><g><svg version="1.1" width="74.10802925459562px" height="74.10802925459562px" viewBox="0 0 74.10802925459562 74.10802925459562"><g id="original-76599"><svg xmlns="http://www.w3.org/2000/svg" viewBox="0 0 400 400" xmlns:xlink="http://www.w3.org/1999/xlink" version="1.1" preserveAspectRatio="xMidYMid meet">
  <path d="M218.9 279.6l3.5-16.7c.4-2.1-.5-4.3-2.4-5.3-.6-.4-15.2-9.8-7.8-45.1 3.4-16.2 1.5-30.9-5.6-42.5-2.6-4.4-5.9-8.2-9.7-11.3.1-.2.1-.4.2-.6 2.1-10-4.4-19.9-14.4-22-9.8-2-19.4 4.1-21.8 13.7-5.8 1.2-11.3 3.6-16.3 7.2-11 7.8-18.6 20.6-22 36.8-7.3 35.1-24.3 38.1-25.2 38.2-2.1.3-3.9 1.8-4.3 3.9l-3.5 16.7c-.6 2.7 1.2 5.4 3.9 5.9l42.6 8.9c.4 8.3 6.4 15.7 14.9 17.4 1.2.2 2.4.4 3.6.4 7.1 0 13.6-4.1 16.7-10.4l41.6 8.7c.3.1.7.1 1 .1 2.4 0 4.5-1.6 5-4zm-38.3-133.7c3.5.7 6 3.5 6.7 6.8-2.8-1.3-5.8-2.3-8.9-2.9-2.1-.4-4.1-.7-6.2-.8 2-2.5 5.2-3.7 8.4-3.1zm-21.2 127.8c-1.9 1.3-4.2 1.7-6.4 1.3-3-.6-5.3-2.7-6.3-5.4l14.2 3c-.5.4-1 .8-1.5 1.1zm-59-23.9l1.8-8.8c7.3-2.6 23.2-11.9 30.1-45.1 6.2-29.9 27.2-39.8 44-36.3 16.9 3.5 32.3 21 26 50.9-4.3 20.9-1.7 34.5 2.2 43l-87.3-18.2c-2.7-.6-5.4 1.2-5.9 3.9-.6 2.7 1.2 5.4 3.9 5.9l96.4 20.1-1.6 7.4-109.6-22.8z" fill="rgba(170, 100, 101, 1)" stroke="none"/>
  <path d="M178.8 176.9c.1 0 11.7 5.3 9.4 30.4-.3 2.8 1.8 5.2 4.5 5.4h.5c2.6 0 4.7-2 5-4.5 3-32.9-14.9-40.3-15.7-40.6-2.6-1-5.5.3-6.5 2.8-1 2.6.2 5.5 2.8 6.5z" fill="rgba(170, 100, 101, 1)" stroke="none"/>
  <path d="M167 172.2l.2.1c.8.4 1.6.6 2.4.6 1.8 0 3.5-1 4.4-2.6.4-.8.6-1.6.6-2.4 0-1.8-1-3.5-2.6-4.4l-.2-.1c-2.4-1.3-5.5-.4-6.8 2-.4.8-.6 1.6-.6 2.4 0 1.8.9 3.5 2.6 4.4z" fill="rgba(170, 100, 101, 1)" stroke="none"/>
  <path d="M306.8 107.8c-1.1-1.4-2.9-2.2-4.7-1.9-.3 0-29.8 3.9-40.1-15.5-1-1.8-3-2.9-5-2.6-2.1.2-3.8 1.8-4.3 3.8 0 .1-3.6 13.9-14.1 19.6-5.9 3.2-13.2 3.3-21.7.3-1.7-.6-3.7-.2-5 1-1.4 1.2-1.9 3.1-1.5 4.9 0 .1 1.3 5.5-1.5 9.6-2 2.9-5.8 4.8-11.3 5.5-2.7.4-4.7 2.9-4.3 5.6.4 2.7 2.9 4.7 5.6 4.3 8.5-1.1 14.6-4.5 18.3-9.9 2.2-3.2 3.1-6.7 3.3-9.7 8.4 1.7 16.1.7 22.8-2.9 7.8-4.2 12.7-11.2 15.5-16.8 6 6.3 14.5 10.4 24.9 12.2 4.3.7 8.3 1 11.6 1-5.8 17.7-3.8 31.1-1.4 39-6.5.3-15.4 1.9-22.8 7.8-6.3 5.1-10.3 12.3-11.8 21.5-8.2-1.2-23.4-1.9-34.6 7-2.2 1.7-2.5 4.9-.8 7 1 1.2 2.4 1.9 3.9 1.9 1.1 0 2.2-.4 3.1-1.1 11.7-9.2 31.3-4.1 31.5-4.1 1.5.4 3 .1 4.2-.8 1.2-.9 2-2.3 2.1-3.8.5-8.9 3.4-15.6 8.7-19.8 9.3-7.5 23.4-5.4 23.5-5.4 2 .3 3.9-.5 5-2.2 1.1-1.7 1.1-3.8 0-5.5-.1-.2-10.5-16.7 1.4-45.1.9-1.5.6-3.4-.5-4.9z" fill="rgba(170, 100, 101, 1)" stroke="none"/>
  <path d="M227.2 165.3c.9 0 1.8-.2 2.6-.7l39.1-23.4c2.4-1.4 3.1-4.5 1.7-6.9-1.4-2.4-4.5-3.1-6.9-1.7L224.6 156c-2.4 1.4-3.1 4.5-1.7 6.9.9 1.5 2.6 2.4 4.3 2.4z" fill="rgba(170, 100, 101, 1)" stroke="none"/>
  <path d="M107.6 105.1c.1.1 12.3 7.3 14.8 19 1.4 6.6-.5 13.6-5.8 20.9-.9 1.2-1.2 2.8-.8 4.2.4 1.5 1.4 2.7 2.8 3.3.1 0 5.5 2.5 11.1 7.2.9.8 2.1 1.2 3.2 1.2 1.4 0 2.8-.6 3.8-1.8 1.8-2.1 1.5-5.3-.6-7-3-2.5-6-4.5-8.4-5.9 4.6-8.1 6.1-16.2 4.4-24.1-1.9-8.7-7.2-15.3-11.8-19.6 7.7-4 14.1-11 18.7-20.5 1.9-3.9 3.3-7.7 4.2-10.9 15.2 10.3 28.4 12.3 36.7 12.2-1.7 5.8-2.9 13.9-.3 21.8s8.3 14.1 17.1 18.3c2.5 1.2 5.5.1 6.7-2.3 1.2-2.5.1-5.5-2.3-6.7-6.2-3-10.1-7-11.9-12.3-3.4-10.4 2.8-22.2 2.8-22.3 1-1.8.7-3.9-.5-5.5-1.3-1.6-3.4-2.2-5.3-1.7-.8.2-19.3 5.2-42.9-14-1.4-1.1-3.3-1.4-5-.8-1.7.7-2.9 2.2-3.1 3.9 0 .3-4.6 29.7-26.1 34.2-2 .4-3.6 2-3.9 4.1-.3 2 .6 4.1 2.4 5.1z" fill="rgba(170, 100, 101, 1)" stroke="none"/>
  <path d="M153.6 100c-2.7.7-4.3 3.4-3.6 6.1l6 22.8c.6 2.2 2.6 3.7 4.8 3.7.4 0 .8-.1 1.3-.2 2.7-.7 4.3-3.4 3.6-6.1l-6-22.8c-.7-2.6-3.4-4.2-6.1-3.5z" fill="rgba(170, 100, 101, 1)" stroke="none"/>
  <path d="M227.8 203.5c-1.1-2.5-4-3.7-6.6-2.6-2.5 1.1-3.7 4-2.6 6.6l45.1 105.8-15-3.5c-2.2-.5-4.5.5-5.5 2.5l-6.7 12.3-11.8-27.7c-1.1-2.5-4-3.7-6.6-2.6-2.5 1.1-3.7 4-2.6 6.6l15.9 37.2c.8 1.8 2.4 2.9 4.4 3h.2c1.8 0 3.5-1 4.4-2.6l9.8-17.9 20.9 4.9c1.8.4 3.8-.2 5-1.6 1.2-1.4 1.5-3.4.8-5.2l-49.1-115.2z" fill="rgba(170, 100, 101, 1)" stroke="none"/>
</svg>
</g></svg></g></g>
<!-- /image 76599 -->

<!-- image 35854 -->
<g id="transformed-35854" data-image="35854" transform="translate(76.42066228791246, 185.42066228791248) rotate(350, 42.579337712087536, 42.57933771208753)"><g><svg version="1.1" width="85.15867542417507px" height="85.15867542417506px" viewBox="0 0 85.15867542417507 85.15867542417506"><g id="original-35854"><svg xmlns="http://www.w3.org/2000/svg" viewBox="0 0 400 400" xmlns:xlink="http://www.w3.org/1999/xlink" version="1.1" preserveAspectRatio="xMidYMid meet">
  <path d="M264.5 177.1c-1.6-5.1-5.9-8.7-11.2-9.4l-24.8-3.6c-1.3-.2-2.3-1-2.9-2.1l-11.1-22.5c-2.4-4.8-7.1-7.7-12.4-7.7-5.3 0-10.1 3-12.4 7.7L178.6 162c-.6 1.1-1.6 1.9-2.9 2.1l-24.8 3.6c-5.3.8-9.5 4.4-11.2 9.4-1.6 5.1-.3 10.5 3.5 14.2l17.9 17.5c.9.9 1.3 2.2 1.1 3.4l-4.2 24.7c-.9 5.2 1.2 10.4 5.5 13.5 4.3 3.1 9.9 3.5 14.6 1.1l22.2-11.6c1.1-.6 2.5-.6 3.6 0l22.2 11.6c2 1.1 4.3 1.6 6.5 1.6 2.9 0 5.7-.9 8.1-2.7 4.3-3.1 6.4-8.3 5.5-13.5l-4.2-24.7c-.2-1.2.2-2.5 1.1-3.4l17.9-17.5c3.8-3.7 5.1-9.1 3.5-14.2zm-10.5 7l-17.9 17.5c-3.3 3.2-4.8 7.8-4 12.3l4.2 24.7c.4 2.1-.9 3.3-1.5 3.8-.6.4-2.1 1.3-4.1.3L208.6 231c-2-1.1-4.2-1.6-6.4-1.6s-4.4.5-6.4 1.6l-22.2 11.6c-1.9 1-3.5.1-4.1-.3-.6-.4-1.9-1.6-1.5-3.8l4.2-24.7c.8-4.5-.7-9.1-4-12.3L150.3 184c-1.5-1.5-1.2-3.3-1-3.9.2-.7 1-2.3 3.1-2.6l24.8-3.6c4.5-.7 8.4-3.5 10.4-7.6l11.1-22.5c1-1.9 2.7-2.1 3.5-2.1s2.5.2 3.5 2.1l11.1 22.5c2 4.1 5.9 6.9 10.4 7.6l24.8 3.6c2.1.3 2.9 1.9 3.1 2.6.1.8.4 2.5-1.1 4z" fill="rgba(170, 100, 101, 1)" stroke="none"/>
  <path d="M114.9 155.7c.2 0 .5 0 .7-.1l30.6-4.5c12-1.7 22.3-9.2 27.7-20.1l13.7-27.7c1.2-2.5.2-5.5-2.3-6.7-2.5-1.2-5.5-.2-6.7 2.3l-13.7 27.7c-3.9 7.9-11.4 13.4-20.1 14.6l-30.6 4.5c-2.7.4-4.6 2.9-4.2 5.7.3 2.5 2.5 4.3 4.9 4.3z" fill="rgba(170, 100, 101, 1)" stroke="none"/>
  <path d="M232.4 131.1c5.4 10.8 15.7 18.4 27.7 20.1l30.6 4.5c.2 0 .5.1.7.1 2.4 0 4.6-1.8 4.9-4.3.4-2.7-1.5-5.3-4.2-5.7l-30.6-4.5c-8.7-1.3-16.2-6.7-20.1-14.6L227.7 99c-1.2-2.5-4.2-3.5-6.7-2.3-2.5 1.2-3.5 4.2-2.3 6.7l13.7 27.7z" fill="rgba(170, 100, 101, 1)" stroke="none"/>
  <path d="M108.5 178.5c-2-1.9-5.1-1.9-7.1.1-1.9 2-1.9 5.1.1 7.1l22.2 21.6c6.3 6.1 9.2 15 7.7 23.7l-5.2 30.5c-.5 2.7 1.4 5.3 4.1 5.8.3 0 .6.1.9.1 2.4 0 4.5-1.7 4.9-4.2l5.2-30.5c2-11.9-1.9-24.1-10.6-32.5l-22.2-21.7z" fill="rgba(170, 100, 101, 1)" stroke="none"/>
  <path d="M246.6 280.4L219.2 266a36.91 36.91 0 0 0-34.2 0l-27.4 14.4c-2.4 1.3-3.4 4.3-2.1 6.8 1.3 2.4 4.3 3.4 6.8 2.1l27.4-14.4c7.8-4.1 17.1-4.1 24.9 0l27.4 14.4c.7.4 1.5.6 2.3.6 1.8 0 3.5-1 4.4-2.7 1.3-2.4.3-5.5-2.1-6.8z" fill="rgba(170, 100, 101, 1)" stroke="none"/>
  <path d="M272.4 267.4c.3 0 .6 0 .9-.1 2.7-.5 4.5-3.1 4.1-5.8l-5.2-30.5c-1.5-8.7 1.4-17.5 7.7-23.7l22.2-21.6c2-1.9 2-5.1.1-7.1s-5.1-2-7.1-.1l-22.2 21.6c-8.7 8.4-12.6 20.6-10.6 32.5l5.2 30.5c.3 2.5 2.5 4.3 4.9 4.3z" fill="rgba(170, 100, 101, 1)" stroke="none"/>
  <path d="M321.4 228.7l-28.1-11.1c-2.6-1-5.5.2-6.5 2.8-1 2.6.2 5.5 2.8 6.5l28.1 11.1c.6.2 1.2.3 1.8.3 2 0 3.9-1.2 4.7-3.2 1-2.5-.3-5.4-2.8-6.4z" fill="rgba(170, 100, 101, 1)" stroke="none"/>
  <path d="M202.7 288.2c-2.8 0-5 2.3-5 5l.3 30.2c0 2.7 2.3 5 5 5h.1c2.8 0 5-2.3 5-5l-.3-30.2c-.1-2.8-2.3-5-5.1-5z" fill="rgba(170, 100, 101, 1)" stroke="none"/>
  <path d="M144.4 123.5c1 1.3 2.5 2 4 2 1.1 0 2.1-.3 3-1 2.2-1.7 2.6-4.8 1-7L134 93.4c-1.7-2.2-4.8-2.6-7-1-2.2 1.7-2.6 4.8-1 7l18.4 24.1z" fill="rgba(170, 100, 101, 1)" stroke="none"/>
  <path d="M106.6 218.6l-28.3 10.7c-2.6 1-3.9 3.9-2.9 6.4.8 2 2.7 3.2 4.7 3.2.6 0 1.2-.1 1.8-.3l28.3-10.7c2.6-1 3.9-3.9 2.9-6.4-1.1-2.6-3.9-3.9-6.5-2.9z" fill="rgba(170, 100, 101, 1)" stroke="none"/>
  <path d="M262.2 124.9c1.3 0 2.6-.5 3.6-1.5l21.1-21.6c1.9-2 1.9-5.1-.1-7.1-2-1.9-5.1-1.9-7.1.1l-21.1 21.6c-1.9 2-1.9 5.1.1 7.1 1 1 2.2 1.4 3.5 1.4z" fill="rgba(170, 100, 101, 1)" stroke="none"/>
  <circle cx="273.9" cy="292.7" r="6.7" fill="rgba(170, 100, 101, 1)" stroke="none"/>
  <circle cx="315.2" cy="159.4" r="6.7" fill="rgba(170, 100, 101, 1)" stroke="none"/>
  <circle cx="89.2" cy="159.4" r="6.7" fill="rgba(170, 100, 101, 1)" stroke="none"/>
  <circle cx="202.1" cy="76.3" r="6.7" fill="rgba(170, 100, 101, 1)" stroke="none"/>
  <circle cx="132.1" cy="288" r="6.7" fill="rgba(170, 100, 101, 1)" stroke="none"/>
</svg>
</g></svg></g></g>
<!-- /image 35854 -->

<!-- image 58546 -->
<g id="transformed-58546" data-image="58546" transform="translate(148, 29) rotate(12, 40.999999999999986, 41)"><g><svg version="1.1" width="81.99999999999997px" height="82px" viewBox="0 0 81.99999999999997 82"><g id="original-58546"><svg xmlns="http://www.w3.org/2000/svg" viewBox="0 0 400 400" xmlns:xlink="http://www.w3.org/1999/xlink" version="1.1" preserveAspectRatio="xMidYMid meet">
  <path d="M264.5 177.1c-1.6-5.1-5.9-8.7-11.2-9.4l-24.8-3.6c-1.3-.2-2.3-1-2.9-2.1l-11.1-22.5c-2.4-4.8-7.1-7.7-12.4-7.7-5.3 0-10.1 3-12.4 7.7L178.6 162c-.6 1.1-1.6 1.9-2.9 2.1l-24.8 3.6c-5.3.8-9.5 4.4-11.2 9.4-1.6 5.1-.3 10.5 3.5 14.2l17.9 17.5c.9.9 1.3 2.2 1.1 3.4l-4.2 24.7c-.9 5.2 1.2 10.4 5.5 13.5 4.3 3.1 9.9 3.5 14.6 1.1l22.2-11.6c1.1-.6 2.5-.6 3.6 0l22.2 11.6c2 1.1 4.3 1.6 6.5 1.6 2.9 0 5.7-.9 8.1-2.7 4.3-3.1 6.4-8.3 5.5-13.5l-4.2-24.7c-.2-1.2.2-2.5 1.1-3.4l17.9-17.5c3.8-3.7 5.1-9.1 3.5-14.2zm-10.5 7l-17.9 17.5c-3.3 3.2-4.8 7.8-4 12.3l4.2 24.7c.4 2.1-.9 3.3-1.5 3.8-.6.4-2.1 1.3-4.1.3L208.6 231c-2-1.1-4.2-1.6-6.4-1.6s-4.4.5-6.4 1.6l-22.2 11.6c-1.9 1-3.5.1-4.1-.3-.6-.4-1.9-1.6-1.5-3.8l4.2-24.7c.8-4.5-.7-9.1-4-12.3L150.3 184c-1.5-1.5-1.2-3.3-1-3.9.2-.7 1-2.3 3.1-2.6l24.8-3.6c4.5-.7 8.4-3.5 10.4-7.6l11.1-22.5c1-1.9 2.7-2.1 3.5-2.1s2.5.2 3.5 2.1l11.1 22.5c2 4.1 5.9 6.9 10.4 7.6l24.8 3.6c2.1.3 2.9 1.9 3.1 2.6.1.8.4 2.5-1.1 4z" fill="rgba(170, 100, 101, 1)" stroke="none"/>
  <path d="M114.9 155.7c.2 0 .5 0 .7-.1l30.6-4.5c12-1.7 22.3-9.2 27.7-20.1l13.7-27.7c1.2-2.5.2-5.5-2.3-6.7-2.5-1.2-5.5-.2-6.7 2.3l-13.7 27.7c-3.9 7.9-11.4 13.4-20.1 14.6l-30.6 4.5c-2.7.4-4.6 2.9-4.2 5.7.3 2.5 2.5 4.3 4.9 4.3z" fill="rgba(170, 100, 101, 1)" stroke="none"/>
  <path d="M232.4 131.1c5.4 10.8 15.7 18.4 27.7 20.1l30.6 4.5c.2 0 .5.1.7.1 2.4 0 4.6-1.8 4.9-4.3.4-2.7-1.5-5.3-4.2-5.7l-30.6-4.5c-8.7-1.3-16.2-6.7-20.1-14.6L227.7 99c-1.2-2.5-4.2-3.5-6.7-2.3-2.5 1.2-3.5 4.2-2.3 6.7l13.7 27.7z" fill="rgba(170, 100, 101, 1)" stroke="none"/>
  <path d="M108.5 178.5c-2-1.9-5.1-1.9-7.1.1-1.9 2-1.9 5.1.1 7.1l22.2 21.6c6.3 6.1 9.2 15 7.7 23.7l-5.2 30.5c-.5 2.7 1.4 5.3 4.1 5.8.3 0 .6.1.9.1 2.4 0 4.5-1.7 4.9-4.2l5.2-30.5c2-11.9-1.9-24.1-10.6-32.5l-22.2-21.7z" fill="rgba(170, 100, 101, 1)" stroke="none"/>
  <path d="M246.6 280.4L219.2 266a36.91 36.91 0 0 0-34.2 0l-27.4 14.4c-2.4 1.3-3.4 4.3-2.1 6.8 1.3 2.4 4.3 3.4 6.8 2.1l27.4-14.4c7.8-4.1 17.1-4.1 24.9 0l27.4 14.4c.7.4 1.5.6 2.3.6 1.8 0 3.5-1 4.4-2.7 1.3-2.4.3-5.5-2.1-6.8z" fill="rgba(170, 100, 101, 1)" stroke="none"/>
  <path d="M272.4 267.4c.3 0 .6 0 .9-.1 2.7-.5 4.5-3.1 4.1-5.8l-5.2-30.5c-1.5-8.7 1.4-17.5 7.7-23.7l22.2-21.6c2-1.9 2-5.1.1-7.1s-5.1-2-7.1-.1l-22.2 21.6c-8.7 8.4-12.6 20.6-10.6 32.5l5.2 30.5c.3 2.5 2.5 4.3 4.9 4.3z" fill="rgba(170, 100, 101, 1)" stroke="none"/>
  <path d="M321.4 228.7l-28.1-11.1c-2.6-1-5.5.2-6.5 2.8-1 2.6.2 5.5 2.8 6.5l28.1 11.1c.6.2 1.2.3 1.8.3 2 0 3.9-1.2 4.7-3.2 1-2.5-.3-5.4-2.8-6.4z" fill="rgba(170, 100, 101, 1)" stroke="none"/>
  <path d="M202.7 288.2c-2.8 0-5 2.3-5 5l.3 30.2c0 2.7 2.3 5 5 5h.1c2.8 0 5-2.3 5-5l-.3-30.2c-.1-2.8-2.3-5-5.1-5z" fill="rgba(170, 100, 101, 1)" stroke="none"/>
  <path d="M144.4 123.5c1 1.3 2.5 2 4 2 1.1 0 2.1-.3 3-1 2.2-1.7 2.6-4.8 1-7L134 93.4c-1.7-2.2-4.8-2.6-7-1-2.2 1.7-2.6 4.8-1 7l18.4 24.1z" fill="rgba(170, 100, 101, 1)" stroke="none"/>
  <path d="M106.6 218.6l-28.3 10.7c-2.6 1-3.9 3.9-2.9 6.4.8 2 2.7 3.2 4.7 3.2.6 0 1.2-.1 1.8-.3l28.3-10.7c2.6-1 3.9-3.9 2.9-6.4-1.1-2.6-3.9-3.9-6.5-2.9z" fill="rgba(170, 100, 101, 1)" stroke="none"/>
  <path d="M262.2 124.9c1.3 0 2.6-.5 3.6-1.5l21.1-21.6c1.9-2 1.9-5.1-.1-7.1-2-1.9-5.1-1.9-7.1.1l-21.1 21.6c-1.9 2-1.9 5.1.1 7.1 1 1 2.2 1.4 3.5 1.4z" fill="rgba(170, 100, 101, 1)" stroke="none"/>
  <circle cx="273.9" cy="292.7" r="6.7" fill="rgba(170, 100, 101, 1)" stroke="none"/>
  <circle cx="315.2" cy="159.4" r="6.7" fill="rgba(170, 100, 101, 1)" stroke="none"/>
  <circle cx="89.2" cy="159.4" r="6.7" fill="rgba(170, 100, 101, 1)" stroke="none"/>
  <circle cx="202.1" cy="76.3" r="6.7" fill="rgba(170, 100, 101, 1)" stroke="none"/>
  <circle cx="132.1" cy="288" r="6.7" fill="rgba(170, 100, 101, 1)" stroke="none"/>
</svg>
</g></svg></g></g>
<!-- /image 58546 -->

<!-- image 47103 -->
<g id="transformed-47103" data-image="47103" transform="translate(162.43991911029502, 178.43991911029502) rotate(339, 39.56008088970496, 39.56008088970496)"><g><svg version="1.1" width="79.12016177940993px" height="79.12016177940993px" viewBox="0 0 79.12016177940993 79.12016177940993"><g id="original-47103"><svg xmlns="http://www.w3.org/2000/svg" viewBox="0 0 400 400" xmlns:xlink="http://www.w3.org/1999/xlink" version="1.1" preserveAspectRatio="xMidYMid meet">
  <path d="M282.2 144h-52.8c1.5-.7 3-1.4 4.6-2.1 7.1-3.4 12.7-6.5 17.1-9.4.1-.1.3-.2.4-.3 15.5-10.2 16.1-17.3 16.4-20 .6-6.6-3.4-12.3-12-16.9-6.7-3.6-13.6-4-20.6-1.3-5.2 2.1-10 5.9-14.3 10.6-.3.3-.6.6-.8.9-6.2 7.1-11.4 15.9-15.2 23.6-1-12.6-5.2-32.7-21.6-42.7-20.2-12.2-39.8 3.8-47.7 14.4-.9.8-1.8 1.7-2.6 2.7-5.2 5.9-4.8 11.4-3.6 15 3.1 9.1 15.6 17.2 38.4 24.9.5.2 1 .3 1.5.5h-52.8c-9.4 0-17 7.6-17 17v42c0 9.4 7.6 17 17 17h62V313h-43.2c-3.9 0-7-3.1-7-7v-73c0-2.8-2.2-5-5-5s-5 2.2-5 5v73.1c0 9.4 7.6 17 17 17H265c9.4 0 17-7.6 17-17V233c0-2.8-2.2-5-5-5s-5 2.2-5 5v73.1c0 3.9-3.1 7-7 7h-44.7V220h61.9c9.4 0 17-7.6 17-17v-42c0-9.4-7.7-17-17-17zm-69.4 10v56H191v-56h9.1c.6.2 1.2.3 1.8.3.5 0 1-.1 1.6-.2 0 0 .1 0 .3-.1h9zm31.4-51.7c2.3 0 4.6.6 6.9 1.9 3.2 1.7 7 4.4 6.7 7.2-.2 2.3-2.1 4.9-5.2 7.6-1.1-4-3.1-7.3-6-9.9-2.8-2.6-6.2-4.1-9.5-4.9.6-.3 1.2-.6 1.8-.8 1.8-.8 3.5-1.1 5.3-1.1zm-17.4 10.8c3.5-.2 9.6.2 13.2 3.4 2.2 2 3.4 4.9 3.6 8.9-9.3 5.6-21.6 11.2-33 15.5 3.7-8.7 9.4-19.7 16.2-27.8zM178.2 95c12.2 7.4 15.7 23.3 16.7 33.9-9-13.2-23-30.1-37.9-33.8 7.6-4.1 14.5-4.1 21.2-.1zm-39.3 20.3c-.2-.7-.8-2.4 1.7-5.3 3.3-3.8 6.8-5.6 10.7-5.6.5 0 1 0 1.5.1 13 1.5 28.2 21 37.2 35.1-22.3-5.7-48.1-15.4-51.1-24.3zM109.6 203v-42c0-3.9 3.1-7 7-7H181v56h-64.5c-3.8 0-6.9-3.1-6.9-7zm79 110.1V220h21.7v93.1h-21.7zM289.2 203c0 3.9-3.1 7-7 7h-59.4v-56h59.4c3.9 0 7 3.1 7 7v42z" fill="rgba(170, 100, 101, 1)" stroke="none"/>
</svg>
</g></svg></g></g>
<!-- /image 47103 -->

<!-- image 67686 -->
<g id="transformed-67686" data-image="67686" transform="translate(77.55383415336797, 92.55383415336796) rotate(30, 39.44616584663203, 39.44616584663204)"><g><svg version="1.1" width="78.89233169326405px" height="78.89233169326408px" viewBox="0 0 78.89233169326405 78.89233169326408"><g id="original-67686"><svg xmlns="http://www.w3.org/2000/svg" viewBox="0 0 400 400" xmlns:xlink="http://www.w3.org/1999/xlink" version="1.1" preserveAspectRatio="xMidYMid meet">
  <path d="M226.4 136.7V121c0-9.4-7.6-17-17-17h-20c-9.4 0-17 7.6-17 17v19c0 2.8 2.2 5 5 5s5-2.2 5-5v-19c0-3.9 3.1-7 7-7h20c3.9 0 7 3.1 7 7v13.3c-5.5-1-11.2-1.5-17-1.5-3.3 0-6.5.2-9.8.5-2.7.3-4.7 2.7-4.5 5.5.3 2.7 2.7 4.7 5.5 4.5 2.9-.3 5.8-.4 8.7-.4 46.5 0 84.2 37.8 84.2 84.2 0 46.5-37.8 84.2-84.2 84.2s-84.2-37.8-84.2-84.2c0-17.3 5.2-33.9 15-48 9.6-13.8 22.9-24.4 38.5-30.5 2.6-1 3.8-3.9 2.8-6.5s-3.9-3.8-6.5-2.8c-17.5 6.8-32.4 18.6-43.1 34.1-11 15.8-16.8 34.4-16.8 53.7 0 52 42.3 94.2 94.2 94.2 52 0 94.2-42.3 94.2-94.2.3-42.7-28.1-78.8-67-90.4z" fill="rgba(170, 100, 101, 1)" stroke="none"/>
  <path d="M269.9 205c2.5-1.2 3.6-4.1 2.4-6.6-8.4-17.9-22.5-33.1-39.7-42.7-2.4-1.3-5.5-.5-6.8 1.9-1.3 2.4-.5 5.5 1.9 6.8 15.4 8.6 28 22.1 35.5 38.2.8 1.8 2.7 2.9 4.5 2.9.8-.1 1.5-.2 2.2-.5z" fill="rgba(170, 100, 101, 1)" stroke="none"/>
  <circle cx="217.2" cy="154.6" r="5.9" fill="rgba(170, 100, 101, 1)" stroke="none"/>
  <circle cx="176.1" cy="275" r="15" fill="rgba(170, 100, 101, 1)" stroke="none"/>
  <circle cx="213.4" cy="262.7" r="5.3" fill="rgba(170, 100, 101, 1)" stroke="none"/>
  <circle cx="202.1" cy="211" r="16" fill="rgba(170, 100, 101, 1)" stroke="none"/>
  <circle cx="258.4" cy="244.6" r="9.4" fill="rgba(170, 100, 101, 1)" stroke="none"/>
  <circle cx="157" cy="197.5" r="10.9" fill="rgba(170, 100, 101, 1)" stroke="none"/>
  <path d="M184.4 101.3c2.8 0 5-2.2 5-5 0-5.5 4.5-10 10-10s10 4.5 10 10c0 2.8 2.2 5 5 5s5-2.2 5-5c0-11-9-20-20-20s-20 9-20 20c0 2.8 2.3 5 5 5z" fill="rgba(170, 100, 101, 1)" stroke="none"/>
</svg>
</g></svg></g></g>
<!-- /image 67686 -->

<!-- image 84965 -->
<g id="transformed-84965" data-image="84965" transform="translate(-10.275318418009277, 199.72468158199072) rotate(326, 38.27531841800928, 38.27531841800927)"><g><svg version="1.1" width="76.55063683601855px" height="76.55063683601854px" viewBox="0 0 76.55063683601855 76.55063683601854"><g id="original-84965"><svg xmlns="http://www.w3.org/2000/svg" viewBox="0 0 400 400" xmlns:xlink="http://www.w3.org/1999/xlink" version="1.1" preserveAspectRatio="xMidYMid meet">
  <path d="M226.4 136.7V121c0-9.4-7.6-17-17-17h-20c-9.4 0-17 7.6-17 17v19c0 2.8 2.2 5 5 5s5-2.2 5-5v-19c0-3.9 3.1-7 7-7h20c3.9 0 7 3.1 7 7v13.3c-5.5-1-11.2-1.5-17-1.5-3.3 0-6.5.2-9.8.5-2.7.3-4.7 2.7-4.5 5.5.3 2.7 2.7 4.7 5.5 4.5 2.9-.3 5.8-.4 8.7-.4 46.5 0 84.2 37.8 84.2 84.2 0 46.5-37.8 84.2-84.2 84.2s-84.2-37.8-84.2-84.2c0-17.3 5.2-33.9 15-48 9.6-13.8 22.9-24.4 38.5-30.5 2.6-1 3.8-3.9 2.8-6.5s-3.9-3.8-6.5-2.8c-17.5 6.8-32.4 18.6-43.1 34.1-11 15.8-16.8 34.4-16.8 53.7 0 52 42.3 94.2 94.2 94.2 52 0 94.2-42.3 94.2-94.2.3-42.7-28.1-78.8-67-90.4z" fill="rgba(170, 100, 101, 1)" stroke="none"/>
  <path d="M269.9 205c2.5-1.2 3.6-4.1 2.4-6.6-8.4-17.9-22.5-33.1-39.7-42.7-2.4-1.3-5.5-.5-6.8 1.9-1.3 2.4-.5 5.5 1.9 6.8 15.4 8.6 28 22.1 35.5 38.2.8 1.8 2.7 2.9 4.5 2.9.8-.1 1.5-.2 2.2-.5z" fill="rgba(170, 100, 101, 1)" stroke="none"/>
  <circle cx="217.2" cy="154.6" r="5.9" fill="rgba(170, 100, 101, 1)" stroke="none"/>
  <circle cx="176.1" cy="275" r="15" fill="rgba(170, 100, 101, 1)" stroke="none"/>
  <circle cx="213.4" cy="262.7" r="5.3" fill="rgba(170, 100, 101, 1)" stroke="none"/>
  <circle cx="202.1" cy="211" r="16" fill="rgba(170, 100, 101, 1)" stroke="none"/>
  <circle cx="258.4" cy="244.6" r="9.4" fill="rgba(170, 100, 101, 1)" stroke="none"/>
  <circle cx="157" cy="197.5" r="10.9" fill="rgba(170, 100, 101, 1)" stroke="none"/>
  <path d="M184.4 101.3c2.8 0 5-2.2 5-5 0-5.5 4.5-10 10-10s10 4.5 10 10c0 2.8 2.2 5 5 5s5-2.2 5-5c0-11-9-20-20-20s-20 9-20 20c0 2.8 2.3 5 5 5z" fill="rgba(170, 100, 101, 1)" stroke="none"/>
</svg>
</g></svg></g></g>
<!-- /image 84965 -->
</defs><rect x="0" y="0" width="250" height="250" fill="rgba(223, 214, 209, 1)"></rect><use xlink:href="#transformed-37750" transform="translate(-250, -250)"></use><use xlink:href="#transformed-37750" transform="translate(0, -250)"></use><use xlink:href="#transformed-37750" transform="translate(250, -250)"></use><use xlink:href="#transformed-37750" transform="translate(-250, 0)"></use><use xlink:href="#transformed-37750" transform="translate(0, 0)"></use><use xlink:href="#transformed-37750" transform="translate(250, 0)"></use><use xlink:href="#transformed-37750" transform="translate(-250, 250)"></use><use xlink:href="#transformed-37750" transform="translate(0, 250)"></use><use xlink:href="#transformed-37750" transform="translate(250, 250)"></use><use xlink:href="#transformed-76599" transform="translate(-250, -250)"></use><use xlink:href="#transformed-76599" transform="translate(0, -250)"></use><use xlink:href="#transformed-76599" transform="translate(250, -250)"></use><use xlink:href="#transformed-76599" transform="translate(-250, 0)"></use><use xlink:href="#transformed-76599" transform="translate(0, 0)"></use><use xlink:href="#transformed-76599" transform="translate(250, 0)"></use><use xlink:href="#transformed-76599" transform="translate(-250, 250)"></use><use xlink:href="#transformed-76599" transform="translate(0, 250)"></use><use xlink:href="#transformed-76599" transform="translate(250, 250)"></use><use xlink:href="#transformed-35854" transform="translate(-250, -250)"></use><use xlink:href="#transformed-35854" transform="translate(0, -250)"></use><use xlink:href="#transformed-35854" transform="translate(250, -250)"></use><use xlink:href="#transformed-35854" transform="translate(-250, 0)"></use><use xlink:href="#transformed-35854" transform="translate(0, 0)"></use><use xlink:href="#transformed-35854" transform="translate(250, 0)"></use><use xlink:href="#transformed-35854" transform="translate(-250, 250)"></use><use xlink:href="#transformed-35854" transform="translate(0, 250)"></use><use xlink:href="#transformed-35854" transform="translate(250, 250)"></use><use xlink:href="#transformed-58546" transform="translate(-250, -250)"></use><use xlink:href="#transformed-58546" transform="translate(0, -250)"></use><use xlink:href="#transformed-58546" transform="translate(250, -250)"></use><use xlink:href="#transformed-58546" transform="translate(-250, 0)"></use><use xlink:href="#transformed-58546" transform="translate(0, 0)"></use><use xlink:href="#transformed-58546" transform="translate(250, 0)"></use><use xlink:href="#transformed-58546" transform="translate(-250, 250)"></use><use xlink:href="#transformed-58546" transform="translate(0, 250)"></use><use xlink:href="#transformed-58546" transform="translate(250, 250)"></use><use xlink:href="#transformed-47103" transform="translate(-250, -250)"></use><use xlink:href="#transformed-47103" transform="translate(0, -250)"></use><use xlink:href="#transformed-47103" transform="translate(250, -250)"></use><use xlink:href="#transformed-47103" transform="translate(-250, 0)"></use><use xlink:href="#transformed-47103" transform="translate(0, 0)"></use><use xlink:href="#transformed-47103" transform="translate(250, 0)"></use><use xlink:href="#transformed-47103" transform="translate(-250, 250)"></use><use xlink:href="#transformed-47103" transform="translate(0, 250)"></use><use xlink:href="#transformed-47103" transform="translate(250, 250)"></use><use xlink:href="#transformed-67686" transform="translate(-250, -250)"></use><use xlink:href="#transformed-67686" transform="translate(0, -250)"></use><use xlink:href="#transformed-67686" transform="translate(250, -250)"></use><use xlink:href="#transformed-67686" transform="translate(-250, 0)"></use><use xlink:href="#transformed-67686" transform="translate(0, 0)"></use><use xlink:href="#transformed-67686" transform="translate(250, 0)"></use><use xlink:href="#transformed-67686" transform="translate(-250, 250)"></use><use xlink:href="#transformed-67686" transform="translate(0, 250)"></use><use xlink:href="#transformed-67686" transform="translate(250, 250)"></use><use xlink:href="#transformed-84965" transform="translate(-250, -250)"></use><use xlink:href="#transformed-84965" transform="translate(0, -250)"></use><use xlink:href="#transformed-84965" transform="translate(250, -250)"></use><use xlink:href="#transformed-84965" transform="translate(-250, 0)"></use><use xlink:href="#transformed-84965" transform="translate(0, 0)"></use><use xlink:href="#transformed-84965" transform="translate(250, 0)"></use><use xlink:href="#transformed-84965" transform="translate(-250, 250)"></use><use xlink:href="#transformed-84965" transform="translate(0, 250)"></use><use xlink:href="#transformed-84965" transform="translate(250, 250)"></use></svg>