<svg version="1.1"
      xmlns="http://www.w3.org/2000/svg"
      xmlns:xlink="http://www.w3.org/1999/xlink"  id="snapshot-50832" width="250" height="250" viewBox="0 0 250 250"><desc>This image was made on Patterninja.com</desc><defs>
<!-- image 95677 -->
<g id="transformed-95677" data-image="95677" transform="translate(-37.80211634287159, -37.8021163428716) rotate(37, 37.80211634287159, 37.8021163428716)"><g><svg version="1.1" width="75.60423268574318px" height="75.6042326857432px" viewBox="0 0 75.60423268574318 75.6042326857432"><g id="original-95677"><svg xmlns="http://www.w3.org/2000/svg" viewBox="0 0 400 400" xmlns:xlink="http://www.w3.org/1999/xlink" version="1.1" preserveAspectRatio="xMidYMid meet">
  <path d="M264.1 253.9c5.6-5.3 10.6-11.4 14.8-18 .2-.2.4-.5.5-.8 8.9-14.4 14.1-31.4 14.1-49.5 0-52-42.3-94.2-94.2-94.2-3.3 0-6.5.2-9.8.5-2.7.3-4.7 2.7-4.5 5.5.3 2.7 2.7 4.7 5.5 4.5 2.9-.3 5.8-.4 8.7-.4 46.5 0 84.2 37.8 84.2 84.2 0 15.8-4.4 30.6-12 43.2-2.4.8-7.5 2.5-14.3 3.9 2.5-4 3.9-8.8 3.9-13.9v-.1c.2-4.9-1.1-14.3-11.7-22.1-2.2-1.6-5.4-1.2-7 1.1-1.6 2.2-1.2 5.4 1.1 7 6.9 5.1 7.7 10.8 7.6 13.7v.4c0 9.3-7.5 16.8-16.8 16.8s-16.8-7.5-16.8-16.8c0-3.9 1.4-7.3 4.6-10.8.4-.4 1.4-1.6 2.2-2.3 2.8 1.6 6.1 2.4 9.5 2.4 2.8 0 5-2.2 5-5s-2.2-5-5-5c-5.4 0-9.8-4.4-9.8-9.8s4.4-9.8 9.8-9.8 9.8 4.4 9.8 9.8c0 2.8 2.2 5 5 5s5-2.2 5-5c0-10.9-8.9-19.8-19.8-19.8s-19.8 8.9-19.8 19.8c0 3.8 1.1 7.4 3 10.4-1.2 1.1-2.3 2.4-2.4 2.5-4.8 5.3-7.2 11-7.2 17.4 0 5.9 1.9 11.3 5.1 15.7-6.4-1.2-12.9-3.1-18.9-6.1-27.8-13.8-62.5-14.8-73.8-14.8-3.1-8.8-4.8-18.2-4.8-28.1 0-17.3 5.2-33.9 15-48 9.6-13.8 22.9-24.4 38.5-30.5 2.6-1 3.8-3.9 2.8-6.5s-3.9-3.8-6.5-2.8c-17.5 6.8-32.4 18.6-43.1 34.1-11 15.8-16.8 34.4-16.8 53.7 0 12.3 2.4 24.1 6.7 34.9.1.2.1.3.2.5 5.3 13 13.4 24.6 23.6 34-5.7 3.4-9.6 7.9-11.7 13.2-4.1 10.2.3 19.7.5 20.1.4.9 1.1 1.7 2 2.2 17.8 10.2 44.4 16 72.9 16 29.3 0 56.3-6.1 74.1-16.7.8-.5 1.4-1.2 1.9-2 .2-.4 4.7-9.3 1.1-19.4-1.7-5.6-5.8-10.4-12-14.3zm-139.9-30.1c13.5.3 42.2 2.4 65 13.7 13.1 6.5 27.2 8.6 40.3 8.6 12.4 0 23.8-1.9 32.2-4-15.4 17.1-37.7 27.8-62.5 27.8-18.9 0-36.4-6.3-50.5-16.9-.5-.7-1.2-1.2-1.9-1.5a84.36 84.36 0 0 1-22.6-27.7zM266.8 282c-16.1 9.1-41.2 14.5-67.6 14.5-26 0-50.1-5-66.4-13.8-.7-2.1-1.6-6.5.2-10.9 1.7-4 5.3-7.4 10.8-9.9 15.6 11.3 34.7 18 55.3 18 21.3 0 41-7.1 56.8-19.1 5.7 2.9 9.4 6.6 10.9 10.8 1.7 4.3.7 8.5 0 10.4z" fill="rgba(221, 221, 221, 1)" stroke="none"/>
  <path d="M231.6 115.2c-2.5-1.2-5.5-.1-6.7 2.4-1.2 2.5-.1 5.5 2.4 6.7 13.2 6.2 24.3 16.7 31.3 29.5.9 1.7 2.6 2.6 4.4 2.6.8 0 1.6-.2 2.4-.6 2.4-1.3 3.3-4.4 2-6.8-8-14.7-20.7-26.7-35.8-33.8z" fill="rgba(221, 221, 221, 1)" stroke="none"/>
  <circle cx="215.6" cy="114.2" r="5.9" fill="rgba(221, 221, 221, 1)" stroke="none"/>
  <circle cx="161.4" cy="143.1" r="5" fill="rgba(221, 221, 221, 1)" stroke="none"/>
  <circle cx="200.6" cy="143.9" r="5" fill="rgba(221, 221, 221, 1)" stroke="none"/>
  <circle cx="181.7" cy="163.4" r="5" fill="rgba(221, 221, 221, 1)" stroke="none"/>
  <circle cx="132.1" cy="175.8" r="5" fill="rgba(221, 221, 221, 1)" stroke="none"/>
  <circle cx="180.7" cy="195.8" r="5" fill="rgba(221, 221, 221, 1)" stroke="none"/>
  <circle cx="269.9" cy="180.8" r="5" fill="rgba(221, 221, 221, 1)" stroke="none"/>
  <circle cx="157.2" cy="175.8" r="5" fill="rgba(221, 221, 221, 1)" stroke="none"/>
  <circle cx="229.5" cy="148.1" r="5" fill="rgba(221, 221, 221, 1)" stroke="none"/>
  <circle cx="186.4" cy="124.7" r="5" fill="rgba(221, 221, 221, 1)" stroke="none"/>
</svg>
</g></svg></g></g>
<!-- /image 95677 -->

<!-- image 50333 -->
<g id="transformed-50333" data-image="50333" transform="translate(24.894109285506303, 143.89410928550632) rotate(334, 33.1058907144937, 33.1058907144937)"><g><svg version="1.1" width="66.2117814289874px" height="66.2117814289874px" viewBox="0 0 66.2117814289874 66.2117814289874"><g id="original-50333"><svg xmlns="http://www.w3.org/2000/svg" viewBox="0 0 400 400" xmlns:xlink="http://www.w3.org/1999/xlink" version="1.1" preserveAspectRatio="xMidYMid meet">
  <path d="M264.5 177.1c-1.6-5.1-5.9-8.7-11.2-9.4l-24.8-3.6c-1.3-.2-2.3-1-2.9-2.1l-11.1-22.5c-2.4-4.8-7.1-7.7-12.4-7.7-5.3 0-10.1 3-12.4 7.7L178.6 162c-.6 1.1-1.6 1.9-2.9 2.1l-24.8 3.6c-5.3.8-9.5 4.4-11.2 9.4-1.6 5.1-.3 10.5 3.5 14.2l17.9 17.5c.9.9 1.3 2.2 1.1 3.4l-4.2 24.7c-.9 5.2 1.2 10.4 5.5 13.5 4.3 3.1 9.9 3.5 14.6 1.1l22.2-11.6c1.1-.6 2.5-.6 3.6 0l22.2 11.6c2 1.1 4.3 1.6 6.5 1.6 2.9 0 5.7-.9 8.1-2.7 4.3-3.1 6.4-8.3 5.5-13.5l-4.2-24.7c-.2-1.2.2-2.5 1.1-3.4l17.9-17.5c3.8-3.7 5.1-9.1 3.5-14.2zm-10.5 7l-17.9 17.5c-3.3 3.2-4.8 7.8-4 12.3l4.2 24.7c.4 2.1-.9 3.3-1.5 3.8-.6.4-2.1 1.3-4.1.3L208.6 231c-2-1.1-4.2-1.6-6.4-1.6s-4.4.5-6.4 1.6l-22.2 11.6c-1.9 1-3.5.1-4.1-.3-.6-.4-1.9-1.6-1.5-3.8l4.2-24.7c.8-4.5-.7-9.1-4-12.3L150.3 184c-1.5-1.5-1.2-3.3-1-3.9.2-.7 1-2.3 3.1-2.6l24.8-3.6c4.5-.7 8.4-3.5 10.4-7.6l11.1-22.5c1-1.9 2.7-2.1 3.5-2.1s2.5.2 3.5 2.1l11.1 22.5c2 4.1 5.9 6.9 10.4 7.6l24.8 3.6c2.1.3 2.9 1.9 3.1 2.6.1.8.4 2.5-1.1 4z" fill="rgba(221, 221, 221, 1)" stroke="none"/>
  <path d="M114.9 155.7c.2 0 .5 0 .7-.1l30.6-4.5c12-1.7 22.3-9.2 27.7-20.1l13.7-27.7c1.2-2.5.2-5.5-2.3-6.7-2.5-1.2-5.5-.2-6.7 2.3l-13.7 27.7c-3.9 7.9-11.4 13.4-20.1 14.6l-30.6 4.5c-2.7.4-4.6 2.9-4.2 5.7.3 2.5 2.5 4.3 4.9 4.3z" fill="rgba(221, 221, 221, 1)" stroke="none"/>
  <path d="M232.4 131.1c5.4 10.8 15.7 18.4 27.7 20.1l30.6 4.5c.2 0 .5.1.7.1 2.4 0 4.6-1.8 4.9-4.3.4-2.7-1.5-5.3-4.2-5.7l-30.6-4.5c-8.7-1.3-16.2-6.7-20.1-14.6L227.7 99c-1.2-2.5-4.2-3.5-6.7-2.3-2.5 1.2-3.5 4.2-2.3 6.7l13.7 27.7z" fill="rgba(221, 221, 221, 1)" stroke="none"/>
  <path d="M108.5 178.5c-2-1.9-5.1-1.9-7.1.1-1.9 2-1.9 5.1.1 7.1l22.2 21.6c6.3 6.1 9.2 15 7.7 23.7l-5.2 30.5c-.5 2.7 1.4 5.3 4.1 5.8.3 0 .6.1.9.1 2.4 0 4.5-1.7 4.9-4.2l5.2-30.5c2-11.9-1.9-24.1-10.6-32.5l-22.2-21.7z" fill="rgba(221, 221, 221, 1)" stroke="none"/>
  <path d="M246.6 280.4L219.2 266a36.91 36.91 0 0 0-34.2 0l-27.4 14.4c-2.4 1.3-3.4 4.3-2.1 6.8 1.3 2.4 4.3 3.4 6.8 2.1l27.4-14.4c7.8-4.1 17.1-4.1 24.9 0l27.4 14.4c.7.4 1.5.6 2.3.6 1.8 0 3.5-1 4.4-2.7 1.3-2.4.3-5.5-2.1-6.8z" fill="rgba(221, 221, 221, 1)" stroke="none"/>
  <path d="M272.4 267.4c.3 0 .6 0 .9-.1 2.7-.5 4.5-3.1 4.1-5.8l-5.2-30.5c-1.5-8.7 1.4-17.5 7.7-23.7l22.2-21.6c2-1.9 2-5.1.1-7.1s-5.1-2-7.1-.1l-22.2 21.6c-8.7 8.4-12.6 20.6-10.6 32.5l5.2 30.5c.3 2.5 2.5 4.3 4.9 4.3z" fill="rgba(221, 221, 221, 1)" stroke="none"/>
  <path d="M321.4 228.7l-28.1-11.1c-2.6-1-5.5.2-6.5 2.8-1 2.6.2 5.5 2.8 6.5l28.1 11.1c.6.2 1.2.3 1.8.3 2 0 3.9-1.2 4.7-3.2 1-2.5-.3-5.4-2.8-6.4z" fill="rgba(221, 221, 221, 1)" stroke="none"/>
  <path d="M202.7 288.2c-2.8 0-5 2.3-5 5l.3 30.2c0 2.7 2.3 5 5 5h.1c2.8 0 5-2.3 5-5l-.3-30.2c-.1-2.8-2.3-5-5.1-5z" fill="rgba(221, 221, 221, 1)" stroke="none"/>
  <path d="M144.4 123.5c1 1.3 2.5 2 4 2 1.1 0 2.1-.3 3-1 2.2-1.7 2.6-4.8 1-7L134 93.4c-1.7-2.2-4.8-2.6-7-1-2.2 1.7-2.6 4.8-1 7l18.4 24.1z" fill="rgba(221, 221, 221, 1)" stroke="none"/>
  <path d="M106.6 218.6l-28.3 10.7c-2.6 1-3.9 3.9-2.9 6.4.8 2 2.7 3.2 4.7 3.2.6 0 1.2-.1 1.8-.3l28.3-10.7c2.6-1 3.9-3.9 2.9-6.4-1.1-2.6-3.9-3.9-6.5-2.9z" fill="rgba(221, 221, 221, 1)" stroke="none"/>
  <path d="M262.2 124.9c1.3 0 2.6-.5 3.6-1.5l21.1-21.6c1.9-2 1.9-5.1-.1-7.1-2-1.9-5.1-1.9-7.1.1l-21.1 21.6c-1.9 2-1.9 5.1.1 7.1 1 1 2.2 1.4 3.5 1.4z" fill="rgba(221, 221, 221, 1)" stroke="none"/>
  <circle cx="273.9" cy="292.7" r="6.7" fill="rgba(221, 221, 221, 1)" stroke="none"/>
  <circle cx="315.2" cy="159.4" r="6.7" fill="rgba(221, 221, 221, 1)" stroke="none"/>
  <circle cx="89.2" cy="159.4" r="6.7" fill="rgba(221, 221, 221, 1)" stroke="none"/>
  <circle cx="202.1" cy="76.3" r="6.7" fill="rgba(221, 221, 221, 1)" stroke="none"/>
  <circle cx="132.1" cy="288" r="6.7" fill="rgba(221, 221, 221, 1)" stroke="none"/>
</svg>
</g></svg></g></g>
<!-- /image 50333 -->

<!-- image 88001 -->
<g id="transformed-88001" data-image="88001" transform="translate(214.35034456537105, 64.35034456537099) rotate(332, 32.64965543462896, 32.64965543462902)"><g><svg version="1.1" width="65.29931086925792px" height="65.29931086925804px" viewBox="0 0 65.29931086925792 65.29931086925804"><g id="original-88001"><svg xmlns="http://www.w3.org/2000/svg" viewBox="0 0 400 400" xmlns:xlink="http://www.w3.org/1999/xlink" version="1.1" preserveAspectRatio="xMidYMid meet">
  <path d="M230.3 232.5c-3.8-7.2-10.2-12.5-18-14.9-7.8-2.4-16.1-1.6-23.3 2.2-7.2 3.8-12.5 10.2-14.9 18-4.9 16.1 4.2 33.2 20.3 38.1 2.9.9 6 1.3 9 1.3 4.9 0 9.8-1.2 14.3-3.6 7.2-3.8 12.5-10.2 14.9-18 2.3-7.6 1.5-15.9-2.3-23.1zm-7.3 20.3c-3.3 10.8-14.8 17-25.6 13.6-10.8-3.3-17-14.8-13.6-25.6 1.6-5.2 5.2-9.6 10-12.1 3-1.6 6.3-2.4 9.6-2.4 2 0 4 .3 6 .9 5.2 1.6 9.6 5.2 12.1 10 2.6 4.8 3.1 10.4 1.5 15.6z" fill="rgba(221, 221, 221, 1)" stroke="none"/>
  <path d="M207.9 235.3c-2.2 1.6-2.7 4.8-1.1 7 .7.9 3.8 5.7-1.2 10-2.1 1.8-2.4 4.9-.6 7 1 1.2 2.4 1.8 3.8 1.8 1.1 0 2.3-.4 3.2-1.2 9.2-7.7 6.7-18.3 2.8-23.6-1.5-2.1-4.6-2.6-6.9-1z" fill="rgba(221, 221, 221, 1)" stroke="none"/>
  <path d="M201.6 309.6c-2.6-1-5.5.2-6.5 2.7-.8 1.9-1.4 3.7-1.8 5.3-5.9-.9-11.2-.1-15.9 2.6-4.6 2.7-7.7 6.7-9.7 10.3-6.8-5.7-15.8-7.1-22.1-7.2 2.6-10 1.7-17.8.2-23.1 4.3-.6 9.6-2.1 14.1-5.8 4.1-3.5 6.8-8.2 7.9-14 2.7.2 6.2.3 9.8-.3 2.7-.4 4.6-3 4.2-5.7-.4-2.7-3-4.6-5.7-4.2-5.9.9-11.5-.4-11.5-.4-1.5-.4-3 0-4.2.9-1.2.9-1.9 2.3-2 3.8-.2 5.5-1.8 9.6-4.9 12.2-5.5 4.7-14.3 3.7-14.4 3.7-2-.3-3.9.6-5 2.3-1 1.7-1 3.8.1 5.4.3.4 6.8 10.6-.3 28.7-.7 1.7-.4 3.6.8 5 1.1 1.4 2.9 2.1 4.7 1.8.2 0 18.8-2.9 25.4 8.9.9 1.6 2.6 2.6 4.4 2.6.2 0 .5 0 .7-.1 2.1-.3 3.7-1.9 4.1-3.9 0-.1 2-8.6 8.3-12.2 3.5-2 7.9-2.2 13.2-.4 1.4.5 3 .3 4.3-.6 1.3-.8 2.1-2.2 2.3-3.7 0 0 .5-3.9 2.2-8.1 1.1-2.5-.1-5.4-2.7-6.5z" fill="rgba(221, 221, 221, 1)" stroke="none"/>
  <path d="M280.3 302.1c-.1 0-8.9-1-13.2-6.8-2.4-3.2-3.1-7.6-2-13 .3-1.5-.1-3-1.1-4.2-1-1.1-2.4-1.8-3.9-1.8-.5 0-17.9-.1-20.6-12.1-.6-2.7-3.3-4.4-6-3.8-2.7.6-4.4 3.3-3.8 6 1.9 8.4 8 14.5 17.5 17.7 2.7.9 5.2 1.4 7.4 1.7-.2 6 1.3 11.1 4.5 15.5 3.2 4.3 7.6 6.9 11.4 8.4-4.8 7.5-5.1 16.5-4.5 22.8-10.2-1.3-17.9.5-22.9 2.6-1.1-4.2-3.2-9.3-7.5-13.3-3.9-3.7-8.9-5.7-14.9-6.1-.2-5.7-1.6-14.5-7.5-20.8-4.9-5.3-11.8-7.8-20.5-7.4-.9 0-1.7.3-2.4.7l-28.1 17.5c-2.3 1.5-3.1 4.5-1.6 6.9 1.5 2.3 4.5 3.1 6.9 1.6l27-16.8h.1c5 0 8.7 1.4 11.3 4.2 6 6.4 4.7 18.4 4.7 18.5-.2 1.5.3 3 1.4 4.1 1 1.1 2.5 1.6 4 1.5 5.5-.5 9.8.6 12.7 3.4 5.4 4.9 5.4 13.8 5.4 13.8 0 2 1.1 3.8 2.9 4.6.7.3 1.4.5 2.1.5 1.2 0 2.4-.4 3.3-1.2.4-.3 9.8-8 28.5-3.1 1.7.4 3.6-.1 4.8-1.4 1.3-1.3 1.7-3.2 1.2-4.9-.1-.2-5.1-18.3 5.7-26.3 1.7-1.2 2.4-3.4 1.9-5.3-.4-2-2.1-3.5-4.2-3.7z" fill="rgba(221, 221, 221, 1)" stroke="none"/>
  <path d="M221.1 281.1c-2 1.9-2.1 5-.3 7.1l31.3 33.7c1 1.1 2.3 1.6 3.7 1.6 1.2 0 2.4-.4 3.4-1.3 2-1.9 2.1-5 .3-7.1l-31.3-33.7c-1.9-2.1-5-2.2-7.1-.3z" fill="rgba(221, 221, 221, 1)" stroke="none"/>
  <path d="M252.4 261c-.7.4-1.3.9-2 1.3-2.3 1.5-3 4.6-1.4 6.9 1 1.5 2.6 2.3 4.2 2.3.9 0 1.9-.3 2.7-.8.7-.5 1.5-1 2.2-1.5 2.3-1.6 2.8-4.7 1.3-7-1.7-2.2-4.8-2.8-7-1.2z" fill="rgba(221, 221, 221, 1)" stroke="none"/>
  <path d="M256.9 110.8c1.3 1 2.5 2 3.7 3.1.9.8 2.1 1.2 3.3 1.2 1.4 0 2.8-.6 3.8-1.7 1.8-2.1 1.6-5.2-.5-7.1-1.3-1.2-2.7-2.3-4.1-3.4-2.2-1.7-5.3-1.3-7 .8-1.8 2.2-1.4 5.4.8 7.1z" fill="rgba(221, 221, 221, 1)" stroke="none"/>
  <path d="M222.3 93.8c.4.1.8.2 1.2.2 2.2 0 4.3-1.5 4.8-3.8.7-2.7-.9-5.4-3.6-6.1-1.7-.4-3.5-.8-5.2-1.2-2.7-.5-5.3 1.2-5.9 3.9-.5 2.7 1.2 5.3 3.9 5.9 1.7.3 3.3.7 4.8 1.1z" fill="rgba(221, 221, 221, 1)" stroke="none"/>
  <path d="M136.5 115.3c1.2-1.1 2.4-2.2 3.7-3.2 2.1-1.8 2.4-4.9.7-7-1.8-2.1-4.9-2.4-7-.7-1.4 1.1-2.7 2.3-4.1 3.5-2 1.9-2.2 5-.3 7.1 1 1.1 2.3 1.6 3.7 1.6 1.1 0 2.4-.5 3.3-1.3z" fill="rgba(221, 221, 221, 1)" stroke="none"/>
  <path d="M292.9 140.4c-1.2-2.5-4.1-3.6-6.6-2.4-2.5 1.2-3.6 4.2-2.4 6.7.7 1.5 1.3 3 1.9 4.5.8 1.9 2.7 3.1 4.6 3.1.6 0 1.3-.1 1.9-.4 2.6-1 3.8-4 2.7-6.5-.6-1.7-1.3-3.4-2.1-5z" fill="rgba(221, 221, 221, 1)" stroke="none"/>
  <path d="M173 94.5c.4 0 .9-.1 1.3-.2 1.5-.4 3.1-.8 4.7-1.2 2.7-.6 4.4-3.3 3.8-6-.6-2.7-3.3-4.4-6-3.8-1.7.4-3.5.8-5.2 1.3-2.7.7-4.2 3.5-3.5 6.2.7 2.3 2.7 3.7 4.9 3.7z" fill="rgba(221, 221, 221, 1)" stroke="none"/>
  <path d="M112.5 240.1c1 1.5 2.6 2.3 4.2 2.3.9 0 1.9-.3 2.7-.8 2.3-1.5 3-4.6 1.5-6.9-.9-1.4-1.7-2.8-2.5-4.1-1.4-2.4-4.4-3.2-6.8-1.8-2.4 1.4-3.2 4.4-1.8 6.8.8 1.5 1.7 3 2.7 4.5z" fill="rgba(221, 221, 221, 1)" stroke="none"/>
  <path d="M292.3 191.9c-.2 2.8 1.8 5.2 4.6 5.4h.4c2.6 0 4.8-2 5-4.6l.3-5.4c.1-2.8-2.1-5.1-4.8-5.1h-.2c-2.7 0-4.9 2.1-5 4.9-.1 1.5-.2 3.2-.3 4.8z" fill="rgba(221, 221, 221, 1)" stroke="none"/>
  <path d="M100.9 184.3c-2.8.1-4.9 2.5-4.7 5.2.1 1.8.2 3.6.4 5.4.3 2.6 2.4 4.5 5 4.5h.5c2.7-.3 4.7-2.7 4.5-5.5-.2-1.6-.3-3.2-.4-4.8-.1-2.8-2.5-4.9-5.3-4.8z" fill="rgba(221, 221, 221, 1)" stroke="none"/>
  <path d="M112.2 151l1.8-4.5c1.1-2.5 0-5.5-2.6-6.6-2.5-1.1-5.5 0-6.6 2.6-.7 1.6-1.4 3.3-2 5-1 2.6.3 5.5 2.9 6.5.6.2 1.2.3 1.8.3 2-.1 3.9-1.3 4.7-3.3z" fill="rgba(221, 221, 221, 1)" stroke="none"/>
  <path d="M281.3 228.8l-2.4 4.2c-1.4 2.4-.7 5.4 1.6 6.9.8.5 1.7.7 2.6.7 1.7 0 3.3-.8 4.3-2.4.9-1.5 1.8-3.1 2.7-4.6 1.3-2.4.4-5.5-2-6.8-2.4-1.3-5.5-.4-6.8 2z" fill="rgba(221, 221, 221, 1)" stroke="none"/>
  <path d="M148.2 262.2c-2.3-1.5-5.4-.9-6.9 1.4s-.9 5.4 1.4 6.9c.7.5 1.5 1 2.2 1.4.8.5 1.7.8 2.6.8 1.7 0 3.3-.8 4.3-2.4 1.5-2.3.7-5.4-1.6-6.9-.7-.3-1.4-.8-2-1.2z" fill="rgba(221, 221, 221, 1)" stroke="none"/>
  <path d="M159.9 254.1c.8.5 1.7.8 2.6.8 1.7 0 3.3-.8 4.3-2.4 1.5-2.3.7-5.4-1.6-6.9-20-12.4-31.9-33.8-31.9-57.3 0-37.2 30.3-67.4 67.4-67.4s67.4 30.3 67.4 67.4c0 19.4-8.4 38-23.1 50.8-2.1 1.8-2.3 5-.5 7.1 1.8 2.1 5 2.3 7.1.5 16.8-14.7 26.5-36 26.5-58.3 0-42.7-34.7-77.4-77.4-77.4s-77.4 34.7-77.4 77.4c0 26.8 13.7 51.4 36.6 65.7z" fill="rgba(221, 221, 221, 1)" stroke="none"/>
  <path d="M328.5 203.1c3.3-6.4 7.4-14.5 7.4-23.8 0-9.4-4.5-16-8.4-21.9-2.5-3.8-4.9-7.3-6.3-11.5-1.2-3.8-1.1-8.3-.9-13.1.2-6.9.5-14.6-3.7-21.1-3.4-5.2-10.2-8.3-16.7-11.2-4.2-1.9-8.5-3.9-10.7-6-2.3-2.3-4.5-6-6.8-9.8-3.6-6-7.3-12.3-12.9-15.7-6.9-4.2-14.8-4.5-22.5-4.8-4.8-.2-9.3-.4-13.4-1.4-3.5-.9-7.3-2.9-11.4-5.1-6.8-3.6-13.8-7.2-21.5-7.2-8.7 0-16.6 4-24.2 7.9-4.3 2.2-8.3 4.2-12 5.3-3.9 1.2-8.5 1.4-13.4 1.6-7.7.3-15.7.7-22.3 4.9-5.2 3.3-8.1 9.2-10.9 14.9-1.8 3.6-3.7 7.4-5.7 9.4-2.2 2.2-7 4.4-11.7 6.5-7.2 3.3-14.6 6.7-18.1 12.2-4.1 6.4-3.2 13.8-2.3 20.3.6 4.6 1.2 9 .1 12.5-1.4 4.2-4 7.7-6.9 11.5-4.4 5.8-9.3 12.4-9.3 21.7 0 6.4 3.9 13.9 7.6 21.2 2.3 4.4 4.6 9 5.3 11.9.7 3.2-.1 7.8-1 12.4-1.2 6.9-2.5 14 .4 20 3 6.2 9.4 9.6 15.5 13 4 2.1 8 4.3 10 6.8 1.3 1.6 2.1 5 3 8.2 1.6 6.1 3.3 12.9 9.4 15.8 1.7.8 3.5 1.2 5.4 1.2 3 0 6.3-.9 10-2.6 2.5-1.2 3.6-4.2 2.4-6.7-1.2-2.5-4.2-3.6-6.7-2.4-4.5 2.1-6.4 1.7-7 1.5-1.8-.9-3-5.5-4-9.2-1.1-4.3-2.2-8.7-4.9-12-3.3-4-8.2-6.7-13.1-9.3-4.8-2.6-9.7-5.2-11.3-8.5-1.5-3.1-.5-8.6.5-14 1-5.5 2-11.1.9-16.3-.9-4.2-3.5-9.1-6.2-14.4-3.1-5.9-6.5-12.7-6.5-16.6 0-6 3.4-10.5 7.3-15.7 3.2-4.3 6.5-8.7 8.4-14.4 1.8-5.7 1-11.6.3-16.9-.7-5.5-1.4-10.2.7-13.5 2-3 8.3-5.9 13.9-8.5 5.7-2.6 11-5.1 14.5-8.4 3.3-3.2 5.5-7.8 7.7-12.2 2.2-4.5 4.5-9.1 7.3-10.9 4.3-2.8 10.7-3 17.3-3.3 5.3-.2 10.7-.5 15.8-2 4.6-1.4 9.3-3.7 13.7-6 6.6-3.4 13.4-6.8 19.6-6.8 5.3 0 11.2 3.1 16.9 6.1 4.3 2.3 8.8 4.6 13.4 5.9 5.1 1.4 10.4 1.6 15.6 1.8 6.7.3 13.1.5 17.7 3.3 3.5 2.1 6.5 7.3 9.5 12.2 2.5 4.3 5.2 8.7 8.4 11.9 3.4 3.3 8.3 5.5 13.5 7.9 5 2.3 10.7 4.9 12.5 7.7 2.5 3.8 2.3 9.3 2.1 15.2-.2 5.5-.4 11.1 1.4 16.6 1.8 5.5 4.7 9.8 7.5 13.9 3.6 5.4 6.7 10 6.7 16.3 0 6.9-3.2 13.1-6.3 19.2-2.1 4.1-4 7.9-4.9 11.7-1 4.4 0 9.6 1.1 15.2.9 4.5 2 10.2 1 12.5-1.6 3.7-6 6.2-10.7 8.8-4.6 2.6-9.4 5.2-12.8 9.7-2.8 3.6-3.7 8.2-4.5 12.3-.8 3.9-1.5 7.6-3.6 9-1.8 1.2-5.4 1.2-10.2.1-2.7-.6-5.4 1.1-6 3.8-.6 2.7 1.1 5.4 3.8 6 7.8 1.8 13.6 1.3 17.9-1.5 5.6-3.6 6.9-10.2 8-15.4.7-3.3 1.3-6.4 2.6-8.1 2.1-2.8 5.8-4.8 9.8-7 5.7-3.1 12.1-6.7 15-13.6 2.2-5.1.9-11.8-.4-18.3-.8-4.1-1.7-8.8-1.2-11.2 1-2.8 2.7-6 4.5-9.5z" fill="rgba(221, 221, 221, 1)" stroke="none"/>
</svg>
</g></svg></g></g>
<!-- /image 88001 -->

<!-- image 45562 -->
<g id="transformed-45562" data-image="45562" transform="translate(36.79540843217468, 2.7954084321747033) rotate(5, 39.20459156782532, 39.2045915678253)"><g><svg version="1.1" width="78.40918313565064px" height="78.4091831356506px" viewBox="0 0 78.40918313565064 78.4091831356506"><g id="original-45562"><svg xmlns="http://www.w3.org/2000/svg" viewBox="0 0 400 400" xmlns:xlink="http://www.w3.org/1999/xlink" version="1.1" preserveAspectRatio="xMidYMid meet">
  <path d="M305.4 197.4c-.2-.1-20.8-12.3-17.7-29.6.4-2-.6-4.1-2.3-5.2-1.8-1.1-4-.9-5.7.4-.1.1-9.1 6.9-18.4 5.3-5.2-.9-9.8-4.4-13.7-10.5-.8-1.3-2.1-2.1-3.6-2.3-1.5-.2-3 .3-4.1 1.4 0 0-3.6 3.4-8.7 6.2-2.4 1.3-3.4 4.3-2.1 6.8 1.3 2.4 4.3 3.4 6.8 2.1 2.6-1.4 4.8-2.9 6.6-4.2 4.8 5.8 10.6 9.3 17.1 10.4 6.9 1.2 13.3-.5 18-2.6 1.6 11.9 10.1 20.8 16.3 25.8-11.6 8.1-17.1 17-19.7 23.4-4.4-3-10.9-6.1-18.4-6.1-6.7.1-12.9 2.6-18.6 7.6-5-5.1-14.4-12.8-26-12.8h-.1c-2.8 0-5 2.3-5 5 0 2.8 2.2 5 5 5h.1c11.8 0 21.7 12.9 21.8 13 .9 1.2 2.3 1.9 3.8 2h.2c1.4 0 2.8-.6 3.7-1.7 4.7-5.3 9.8-8.1 15.1-8.2 9.5-.1 17.3 8.1 17.4 8.2 1.3 1.5 3.4 2 5.3 1.3 1.9-.6 3.2-2.3 3.4-4.3 0-.2 1.6-15.7 23.4-27.8 1.6-.9 2.6-2.5 2.6-4.3 0-1.7-1-3.4-2.5-4.3z" fill="rgba(221, 221, 221, 1)" stroke="none"/>
  <path d="M152.9 157c.1.1 11.9 9.9 12.2 21.2.1 5.5-2.5 10.6-8 15.5-1.6 1.4-2.1 3.6-1.3 5.5.7 1.9 2.6 3.2 4.7 3.2h.1s5.3 0 11 2.1c7.4 2.7 12.2 7.5 14.3 14.4.6 2.1 2.5 3.5 4.7 3.6l9.6.2h.1c2.4 0 4.4-1.7 4.9-4 1.5-6.9 5.7-12.1 12.8-15.4 3.6-1.7 7-2.5 9.1-2.8l39.5 4.8h.6c2.5 0 4.7-1.9 5-4.4.3-2.7-1.6-5.2-4.4-5.6l-36.5-4.4c-5.6-4.3-8.5-9-8.8-14.4-.7-11.4 10.3-22.1 10.4-22.2 1.1-1 1.7-2.5 1.5-4-.1-1.5-.9-2.9-2.1-3.7-5.9-4-9.2-8.8-9.9-14-1.3-9.4 6-18.2 6-18.2 1.3-1.5 1.6-3.6.7-5.4-.9-1.8-2.7-2.9-4.7-2.8-.2 0-15.8.3-30.5-19.9-1.1-1.5-2.8-2.2-4.6-2-1.8.2-3.3 1.3-4 3-.1.2-9.7 22.2-27.2 21.1-2.1-.1-4 1.1-4.9 3-.8 1.9-.4 4.1 1 5.6.1.1 8 8.2 7.5 17.6-.3 5.3-3.2 10.3-8.7 14.8-1.2 1-1.8 2.4-1.8 3.9-.1 1.4.5 2.8 1.7 3.7zm13.9-39.7c6.7-1.8 13-6 18.6-12.4 2.1-2.4 3.8-4.8 5.1-6.9 9.4 10.5 19 14.9 25.6 16.7-2.5 4.8-4.8 11.6-3.8 19 .9 6.6 4.1 12.5 9.7 17.5-4.2 5.3-10.3 14.9-9.7 25.7.3 5.6 2.3 10.7 6 15.3-6.6 2.3-14 6.6-18.7 13.8l-5.3-85.1c-.2-2.8-2.5-4.9-5.3-4.7-2.8.2-4.9 2.5-4.7 5.3l5.2 83.4c-5.3-6.3-12.6-9.7-19.1-11.4 3.3-4.9 4.8-10.2 4.7-15.7-.3-10.8-7.1-19.9-11.8-24.8 5.2-5.5 7.9-11.6 8.3-18.3.4-6.7-2.1-12.9-4.8-17.4z" fill="rgba(221, 221, 221, 1)" stroke="none"/>
  <path d="M203.2 230.8c-8.1 0-15.4 3.3-20.7 8.6.1-1.1.2-2.2.2-3.4 0-16.1-13.1-29.3-29.3-29.3s-29.3 13.1-29.3 29.3c0 12.2 7.5 22.7 18.2 27.1-6.6 5.4-10.8 13.5-10.8 22.7 0 16.1 13.1 29.3 29.3 29.3 16 0 29-12.9 29.3-28.9 4 2 8.4 3.1 13.2 3.1 16.1 0 29.3-13.1 29.3-29.3-.2-16.1-13.3-29.2-29.4-29.2zm-29.1 25.9c-.1 1-.2 2-.2 3-.7-.3-1.4-.7-2.1-1 .8-.6 1.6-1.3 2.3-2zm-40-20.7c0-10.6 8.6-19.3 19.3-19.3s19.3 8.6 19.3 19.3-8.6 19.3-19.3 19.3-19.3-8.7-19.3-19.3zm26.7 69c-10.6 0-19.3-8.6-19.3-19.3 0-10.6 8.6-19.3 19.3-19.3 10.6 0 19.3 8.6 19.3 19.3-.1 10.7-8.7 19.3-19.3 19.3zm42.4-25.7c-10.6 0-19.3-8.6-19.3-19.3 0-10.6 8.6-19.3 19.3-19.3s19.3 8.6 19.3 19.3c-.1 10.7-8.7 19.3-19.3 19.3z" fill="rgba(221, 221, 221, 1)" stroke="none"/>
  <path d="M211.5 245.7c-2.2-1.6-5.4-1.2-7 1-1.6 2.2-1.2 5.3 1 7 1.5 1.2 4.7 4.4 1.7 9.1-1.5 2.3-.9 5.4 1.5 6.9.8.5 1.8.8 2.7.8 1.6 0 3.2-.8 4.2-2.3 6.2-9.6.9-18.7-4.1-22.5z" fill="rgba(221, 221, 221, 1)" stroke="none"/>
  <path d="M154.8 230.4c.8.6 4.9 4 1.6 9-1.5 2.3-.9 5.4 1.5 6.9.8.5 1.8.8 2.7.8 1.6 0 3.2-.8 4.2-2.3 6.3-9.7 1-18.8-4-22.5-2.2-1.6-5.3-1.2-7 1-1.7 2.4-1.2 5.5 1 7.1z" fill="rgba(221, 221, 221, 1)" stroke="none"/>
  <path d="M168.5 272.9c-2.2-1.6-5.4-1.2-7 1-1.6 2.2-1.2 5.3 1 7 1.5 1.2 4.7 4.4 1.7 9.1-1.5 2.3-.9 5.4 1.5 6.9.8.5 1.8.8 2.7.8 1.6 0 3.2-.8 4.2-2.3 6.3-9.7 1-18.8-4.1-22.5z" fill="rgba(221, 221, 221, 1)" stroke="none"/>
</svg>
</g></svg></g></g>
<!-- /image 45562 -->

<!-- image 56158 -->
<g id="transformed-56158" data-image="56158" transform="translate(90.98684438250359, 65.98684438250358) rotate(324, 38.013155617496416, 38.01315561749642)"><g><svg version="1.1" width="76.02631123499283px" height="76.02631123499285px" viewBox="0 0 76.02631123499283 76.02631123499285"><g id="original-56158"><svg xmlns="http://www.w3.org/2000/svg" viewBox="0 0 400 400" xmlns:xlink="http://www.w3.org/1999/xlink" version="1.1" preserveAspectRatio="xMidYMid meet">
  <path d="M264.1 253.9c5.6-5.3 10.6-11.4 14.8-18 .2-.2.4-.5.5-.8 8.9-14.4 14.1-31.4 14.1-49.5 0-52-42.3-94.2-94.2-94.2-3.3 0-6.5.2-9.8.5-2.7.3-4.7 2.7-4.5 5.5.3 2.7 2.7 4.7 5.5 4.5 2.9-.3 5.8-.4 8.7-.4 46.5 0 84.2 37.8 84.2 84.2 0 15.8-4.4 30.6-12 43.2-2.4.8-7.5 2.5-14.3 3.9 2.5-4 3.9-8.8 3.9-13.9v-.1c.2-4.9-1.1-14.3-11.7-22.1-2.2-1.6-5.4-1.2-7 1.1-1.6 2.2-1.2 5.4 1.1 7 6.9 5.1 7.7 10.8 7.6 13.7v.4c0 9.3-7.5 16.8-16.8 16.8s-16.8-7.5-16.8-16.8c0-3.9 1.4-7.3 4.6-10.8.4-.4 1.4-1.6 2.2-2.3 2.8 1.6 6.1 2.4 9.5 2.4 2.8 0 5-2.2 5-5s-2.2-5-5-5c-5.4 0-9.8-4.4-9.8-9.8s4.4-9.8 9.8-9.8 9.8 4.4 9.8 9.8c0 2.8 2.2 5 5 5s5-2.2 5-5c0-10.9-8.9-19.8-19.8-19.8s-19.8 8.9-19.8 19.8c0 3.8 1.1 7.4 3 10.4-1.2 1.1-2.3 2.4-2.4 2.5-4.8 5.3-7.2 11-7.2 17.4 0 5.9 1.9 11.3 5.1 15.7-6.4-1.2-12.9-3.1-18.9-6.1-27.8-13.8-62.5-14.8-73.8-14.8-3.1-8.8-4.8-18.2-4.8-28.1 0-17.3 5.2-33.9 15-48 9.6-13.8 22.9-24.4 38.5-30.5 2.6-1 3.8-3.9 2.8-6.5s-3.9-3.8-6.5-2.8c-17.5 6.8-32.4 18.6-43.1 34.1-11 15.8-16.8 34.4-16.8 53.7 0 12.3 2.4 24.1 6.7 34.9.1.2.1.3.2.5 5.3 13 13.4 24.6 23.6 34-5.7 3.4-9.6 7.9-11.7 13.2-4.1 10.2.3 19.7.5 20.1.4.9 1.1 1.7 2 2.2 17.8 10.2 44.4 16 72.9 16 29.3 0 56.3-6.1 74.1-16.7.8-.5 1.4-1.2 1.9-2 .2-.4 4.7-9.3 1.1-19.4-1.7-5.6-5.8-10.4-12-14.3zm-139.9-30.1c13.5.3 42.2 2.4 65 13.7 13.1 6.5 27.2 8.6 40.3 8.6 12.4 0 23.8-1.9 32.2-4-15.4 17.1-37.7 27.8-62.5 27.8-18.9 0-36.4-6.3-50.5-16.9-.5-.7-1.2-1.2-1.9-1.5a84.36 84.36 0 0 1-22.6-27.7zM266.8 282c-16.1 9.1-41.2 14.5-67.6 14.5-26 0-50.1-5-66.4-13.8-.7-2.1-1.6-6.5.2-10.9 1.7-4 5.3-7.4 10.8-9.9 15.6 11.3 34.7 18 55.3 18 21.3 0 41-7.1 56.8-19.1 5.7 2.9 9.4 6.6 10.9 10.8 1.7 4.3.7 8.5 0 10.4z" fill="rgba(221, 221, 221, 1)" stroke="none"/>
  <path d="M231.6 115.2c-2.5-1.2-5.5-.1-6.7 2.4-1.2 2.5-.1 5.5 2.4 6.7 13.2 6.2 24.3 16.7 31.3 29.5.9 1.7 2.6 2.6 4.4 2.6.8 0 1.6-.2 2.4-.6 2.4-1.3 3.3-4.4 2-6.8-8-14.7-20.7-26.7-35.8-33.8z" fill="rgba(221, 221, 221, 1)" stroke="none"/>
  <circle cx="215.6" cy="114.2" r="5.9" fill="rgba(221, 221, 221, 1)" stroke="none"/>
  <circle cx="161.4" cy="143.1" r="5" fill="rgba(221, 221, 221, 1)" stroke="none"/>
  <circle cx="200.6" cy="143.9" r="5" fill="rgba(221, 221, 221, 1)" stroke="none"/>
  <circle cx="181.7" cy="163.4" r="5" fill="rgba(221, 221, 221, 1)" stroke="none"/>
  <circle cx="132.1" cy="175.8" r="5" fill="rgba(221, 221, 221, 1)" stroke="none"/>
  <circle cx="180.7" cy="195.8" r="5" fill="rgba(221, 221, 221, 1)" stroke="none"/>
  <circle cx="269.9" cy="180.8" r="5" fill="rgba(221, 221, 221, 1)" stroke="none"/>
  <circle cx="157.2" cy="175.8" r="5" fill="rgba(221, 221, 221, 1)" stroke="none"/>
  <circle cx="229.5" cy="148.1" r="5" fill="rgba(221, 221, 221, 1)" stroke="none"/>
  <circle cx="186.4" cy="124.7" r="5" fill="rgba(221, 221, 221, 1)" stroke="none"/>
</svg>
</g></svg></g></g>
<!-- /image 56158 -->

<!-- image 24703 -->
<g id="transformed-24703" data-image="24703" transform="translate(137.350344565371, -3.649655434629011) rotate(40, 32.64965543462902, 32.64965543462901)"><g><svg version="1.1" width="65.29931086925804px" height="65.29931086925802px" viewBox="0 0 65.29931086925804 65.29931086925802"><g id="original-24703"><svg xmlns="http://www.w3.org/2000/svg" viewBox="0 0 400 400" xmlns:xlink="http://www.w3.org/1999/xlink" version="1.1" preserveAspectRatio="xMidYMid meet">
  <path d="M264.5 177.1c-1.6-5.1-5.9-8.7-11.2-9.4l-24.8-3.6c-1.3-.2-2.3-1-2.9-2.1l-11.1-22.5c-2.4-4.8-7.1-7.7-12.4-7.7-5.3 0-10.1 3-12.4 7.7L178.6 162c-.6 1.1-1.6 1.9-2.9 2.1l-24.8 3.6c-5.3.8-9.5 4.4-11.2 9.4-1.6 5.1-.3 10.5 3.5 14.2l17.9 17.5c.9.9 1.3 2.2 1.1 3.4l-4.2 24.7c-.9 5.2 1.2 10.4 5.5 13.5 4.3 3.1 9.9 3.5 14.6 1.1l22.2-11.6c1.1-.6 2.5-.6 3.6 0l22.2 11.6c2 1.1 4.3 1.6 6.5 1.6 2.9 0 5.7-.9 8.1-2.7 4.3-3.1 6.4-8.3 5.5-13.5l-4.2-24.7c-.2-1.2.2-2.5 1.1-3.4l17.9-17.5c3.8-3.7 5.1-9.1 3.5-14.2zm-10.5 7l-17.9 17.5c-3.3 3.2-4.8 7.8-4 12.3l4.2 24.7c.4 2.1-.9 3.3-1.5 3.8-.6.4-2.1 1.3-4.1.3L208.6 231c-2-1.1-4.2-1.6-6.4-1.6s-4.4.5-6.4 1.6l-22.2 11.6c-1.9 1-3.5.1-4.1-.3-.6-.4-1.9-1.6-1.5-3.8l4.2-24.7c.8-4.5-.7-9.1-4-12.3L150.3 184c-1.5-1.5-1.2-3.3-1-3.9.2-.7 1-2.3 3.1-2.6l24.8-3.6c4.5-.7 8.4-3.5 10.4-7.6l11.1-22.5c1-1.9 2.7-2.1 3.5-2.1s2.5.2 3.5 2.1l11.1 22.5c2 4.1 5.9 6.9 10.4 7.6l24.8 3.6c2.1.3 2.9 1.9 3.1 2.6.1.8.4 2.5-1.1 4z" fill="rgba(221, 221, 221, 1)" stroke="none"/>
  <path d="M114.9 155.7c.2 0 .5 0 .7-.1l30.6-4.5c12-1.7 22.3-9.2 27.7-20.1l13.7-27.7c1.2-2.5.2-5.5-2.3-6.7-2.5-1.2-5.5-.2-6.7 2.3l-13.7 27.7c-3.9 7.9-11.4 13.4-20.1 14.6l-30.6 4.5c-2.7.4-4.6 2.9-4.2 5.7.3 2.5 2.5 4.3 4.9 4.3z" fill="rgba(221, 221, 221, 1)" stroke="none"/>
  <path d="M232.4 131.1c5.4 10.8 15.7 18.4 27.7 20.1l30.6 4.5c.2 0 .5.1.7.1 2.4 0 4.6-1.8 4.9-4.3.4-2.7-1.5-5.3-4.2-5.7l-30.6-4.5c-8.7-1.3-16.2-6.7-20.1-14.6L227.7 99c-1.2-2.5-4.2-3.5-6.7-2.3-2.5 1.2-3.5 4.2-2.3 6.7l13.7 27.7z" fill="rgba(221, 221, 221, 1)" stroke="none"/>
  <path d="M108.5 178.5c-2-1.9-5.1-1.9-7.1.1-1.9 2-1.9 5.1.1 7.1l22.2 21.6c6.3 6.1 9.2 15 7.7 23.7l-5.2 30.5c-.5 2.7 1.4 5.3 4.1 5.8.3 0 .6.1.9.1 2.4 0 4.5-1.7 4.9-4.2l5.2-30.5c2-11.9-1.9-24.1-10.6-32.5l-22.2-21.7z" fill="rgba(221, 221, 221, 1)" stroke="none"/>
  <path d="M246.6 280.4L219.2 266a36.91 36.91 0 0 0-34.2 0l-27.4 14.4c-2.4 1.3-3.4 4.3-2.1 6.8 1.3 2.4 4.3 3.4 6.8 2.1l27.4-14.4c7.8-4.1 17.1-4.1 24.9 0l27.4 14.4c.7.4 1.5.6 2.3.6 1.8 0 3.5-1 4.4-2.7 1.3-2.4.3-5.5-2.1-6.8z" fill="rgba(221, 221, 221, 1)" stroke="none"/>
  <path d="M272.4 267.4c.3 0 .6 0 .9-.1 2.7-.5 4.5-3.1 4.1-5.8l-5.2-30.5c-1.5-8.7 1.4-17.5 7.7-23.7l22.2-21.6c2-1.9 2-5.1.1-7.1s-5.1-2-7.1-.1l-22.2 21.6c-8.7 8.4-12.6 20.6-10.6 32.5l5.2 30.5c.3 2.5 2.5 4.3 4.9 4.3z" fill="rgba(221, 221, 221, 1)" stroke="none"/>
  <path d="M321.4 228.7l-28.1-11.1c-2.6-1-5.5.2-6.5 2.8-1 2.6.2 5.5 2.8 6.5l28.1 11.1c.6.2 1.2.3 1.8.3 2 0 3.9-1.2 4.7-3.2 1-2.5-.3-5.4-2.8-6.4z" fill="rgba(221, 221, 221, 1)" stroke="none"/>
  <path d="M202.7 288.2c-2.8 0-5 2.3-5 5l.3 30.2c0 2.7 2.3 5 5 5h.1c2.8 0 5-2.3 5-5l-.3-30.2c-.1-2.8-2.3-5-5.1-5z" fill="rgba(221, 221, 221, 1)" stroke="none"/>
  <path d="M144.4 123.5c1 1.3 2.5 2 4 2 1.1 0 2.1-.3 3-1 2.2-1.7 2.6-4.8 1-7L134 93.4c-1.7-2.2-4.8-2.6-7-1-2.2 1.7-2.6 4.8-1 7l18.4 24.1z" fill="rgba(221, 221, 221, 1)" stroke="none"/>
  <path d="M106.6 218.6l-28.3 10.7c-2.6 1-3.9 3.9-2.9 6.4.8 2 2.7 3.2 4.7 3.2.6 0 1.2-.1 1.8-.3l28.3-10.7c2.6-1 3.9-3.9 2.9-6.4-1.1-2.6-3.9-3.9-6.5-2.9z" fill="rgba(221, 221, 221, 1)" stroke="none"/>
  <path d="M262.2 124.9c1.3 0 2.6-.5 3.6-1.5l21.1-21.6c1.9-2 1.9-5.1-.1-7.1-2-1.9-5.1-1.9-7.1.1l-21.1 21.6c-1.9 2-1.9 5.1.1 7.1 1 1 2.2 1.4 3.5 1.4z" fill="rgba(221, 221, 221, 1)" stroke="none"/>
  <circle cx="273.9" cy="292.7" r="6.7" fill="rgba(221, 221, 221, 1)" stroke="none"/>
  <circle cx="315.2" cy="159.4" r="6.7" fill="rgba(221, 221, 221, 1)" stroke="none"/>
  <circle cx="89.2" cy="159.4" r="6.7" fill="rgba(221, 221, 221, 1)" stroke="none"/>
  <circle cx="202.1" cy="76.3" r="6.7" fill="rgba(221, 221, 221, 1)" stroke="none"/>
  <circle cx="132.1" cy="288" r="6.7" fill="rgba(221, 221, 221, 1)" stroke="none"/>
</svg>
</g></svg></g></g>
<!-- /image 24703 -->

<!-- image 31735 -->
<g id="transformed-31735" data-image="31735" transform="translate(168.9871815937377, 131.9871815937377) rotate(1, 39.01281840626232, 39.012818406262305)"><g><svg version="1.1" width="78.02563681252464px" height="78.02563681252461px" viewBox="0 0 78.02563681252464 78.02563681252461"><g id="original-31735"><svg xmlns="http://www.w3.org/2000/svg" viewBox="0 0 400 400" xmlns:xlink="http://www.w3.org/1999/xlink" version="1.1" preserveAspectRatio="xMidYMid meet">
  <path d="M305.4 197.4c-.2-.1-20.8-12.3-17.7-29.6.4-2-.6-4.1-2.3-5.2-1.8-1.1-4-.9-5.7.4-.1.1-9.1 6.9-18.4 5.3-5.2-.9-9.8-4.4-13.7-10.5-.8-1.3-2.1-2.1-3.6-2.3-1.5-.2-3 .3-4.1 1.4 0 0-3.6 3.4-8.7 6.2-2.4 1.3-3.4 4.3-2.1 6.8 1.3 2.4 4.3 3.4 6.8 2.1 2.6-1.4 4.8-2.9 6.6-4.2 4.8 5.8 10.6 9.3 17.1 10.4 6.9 1.2 13.3-.5 18-2.6 1.6 11.9 10.1 20.8 16.3 25.8-11.6 8.1-17.1 17-19.7 23.4-4.4-3-10.9-6.1-18.4-6.1-6.7.1-12.9 2.6-18.6 7.6-5-5.1-14.4-12.8-26-12.8h-.1c-2.8 0-5 2.3-5 5 0 2.8 2.2 5 5 5h.1c11.8 0 21.7 12.9 21.8 13 .9 1.2 2.3 1.9 3.8 2h.2c1.4 0 2.8-.6 3.7-1.7 4.7-5.3 9.8-8.1 15.1-8.2 9.5-.1 17.3 8.1 17.4 8.2 1.3 1.5 3.4 2 5.3 1.3 1.9-.6 3.2-2.3 3.4-4.3 0-.2 1.6-15.7 23.4-27.8 1.6-.9 2.6-2.5 2.6-4.3 0-1.7-1-3.4-2.5-4.3z" fill="rgba(221, 221, 221, 1)" stroke="none"/>
  <path d="M152.9 157c.1.1 11.9 9.9 12.2 21.2.1 5.5-2.5 10.6-8 15.5-1.6 1.4-2.1 3.6-1.3 5.5.7 1.9 2.6 3.2 4.7 3.2h.1s5.3 0 11 2.1c7.4 2.7 12.2 7.5 14.3 14.4.6 2.1 2.5 3.5 4.7 3.6l9.6.2h.1c2.4 0 4.4-1.7 4.9-4 1.5-6.9 5.7-12.1 12.8-15.4 3.6-1.7 7-2.5 9.1-2.8l39.5 4.8h.6c2.5 0 4.7-1.9 5-4.4.3-2.7-1.6-5.2-4.4-5.6l-36.5-4.4c-5.6-4.3-8.5-9-8.8-14.4-.7-11.4 10.3-22.1 10.4-22.2 1.1-1 1.7-2.5 1.5-4-.1-1.5-.9-2.9-2.1-3.7-5.9-4-9.2-8.8-9.9-14-1.3-9.4 6-18.2 6-18.2 1.3-1.5 1.6-3.6.7-5.4-.9-1.8-2.7-2.9-4.7-2.8-.2 0-15.8.3-30.5-19.9-1.1-1.5-2.8-2.2-4.6-2-1.8.2-3.3 1.3-4 3-.1.2-9.7 22.2-27.2 21.1-2.1-.1-4 1.1-4.9 3-.8 1.9-.4 4.1 1 5.6.1.1 8 8.2 7.5 17.6-.3 5.3-3.2 10.3-8.7 14.8-1.2 1-1.8 2.4-1.8 3.9-.1 1.4.5 2.8 1.7 3.7zm13.9-39.7c6.7-1.8 13-6 18.6-12.4 2.1-2.4 3.8-4.8 5.1-6.9 9.4 10.5 19 14.9 25.6 16.7-2.5 4.8-4.8 11.6-3.8 19 .9 6.6 4.1 12.5 9.7 17.5-4.2 5.3-10.3 14.9-9.7 25.7.3 5.6 2.3 10.7 6 15.3-6.6 2.3-14 6.6-18.7 13.8l-5.3-85.1c-.2-2.8-2.5-4.9-5.3-4.7-2.8.2-4.9 2.5-4.7 5.3l5.2 83.4c-5.3-6.3-12.6-9.7-19.1-11.4 3.3-4.9 4.8-10.2 4.7-15.7-.3-10.8-7.1-19.9-11.8-24.8 5.2-5.5 7.9-11.6 8.3-18.3.4-6.7-2.1-12.9-4.8-17.4z" fill="rgba(221, 221, 221, 1)" stroke="none"/>
  <path d="M203.2 230.8c-8.1 0-15.4 3.3-20.7 8.6.1-1.1.2-2.2.2-3.4 0-16.1-13.1-29.3-29.3-29.3s-29.3 13.1-29.3 29.3c0 12.2 7.5 22.7 18.2 27.1-6.6 5.4-10.8 13.5-10.8 22.7 0 16.1 13.1 29.3 29.3 29.3 16 0 29-12.9 29.3-28.9 4 2 8.4 3.1 13.2 3.1 16.1 0 29.3-13.1 29.3-29.3-.2-16.1-13.3-29.2-29.4-29.2zm-29.1 25.9c-.1 1-.2 2-.2 3-.7-.3-1.4-.7-2.1-1 .8-.6 1.6-1.3 2.3-2zm-40-20.7c0-10.6 8.6-19.3 19.3-19.3s19.3 8.6 19.3 19.3-8.6 19.3-19.3 19.3-19.3-8.7-19.3-19.3zm26.7 69c-10.6 0-19.3-8.6-19.3-19.3 0-10.6 8.6-19.3 19.3-19.3 10.6 0 19.3 8.6 19.3 19.3-.1 10.7-8.7 19.3-19.3 19.3zm42.4-25.7c-10.6 0-19.3-8.6-19.3-19.3 0-10.6 8.6-19.3 19.3-19.3s19.3 8.6 19.3 19.3c-.1 10.7-8.7 19.3-19.3 19.3z" fill="rgba(221, 221, 221, 1)" stroke="none"/>
  <path d="M211.5 245.7c-2.2-1.6-5.4-1.2-7 1-1.6 2.2-1.2 5.3 1 7 1.5 1.2 4.7 4.4 1.7 9.1-1.5 2.3-.9 5.4 1.5 6.9.8.5 1.8.8 2.7.8 1.6 0 3.2-.8 4.2-2.3 6.2-9.6.9-18.7-4.1-22.5z" fill="rgba(221, 221, 221, 1)" stroke="none"/>
  <path d="M154.8 230.4c.8.6 4.9 4 1.6 9-1.5 2.3-.9 5.4 1.5 6.9.8.5 1.8.8 2.7.8 1.6 0 3.2-.8 4.2-2.3 6.3-9.7 1-18.8-4-22.5-2.2-1.6-5.3-1.2-7 1-1.7 2.4-1.2 5.5 1 7.1z" fill="rgba(221, 221, 221, 1)" stroke="none"/>
  <path d="M168.5 272.9c-2.2-1.6-5.4-1.2-7 1-1.6 2.2-1.2 5.3 1 7 1.5 1.2 4.7 4.4 1.7 9.1-1.5 2.3-.9 5.4 1.5 6.9.8.5 1.8.8 2.7.8 1.6 0 3.2-.8 4.2-2.3 6.3-9.7 1-18.8-4.1-22.5z" fill="rgba(221, 221, 221, 1)" stroke="none"/>
</svg>
</g></svg></g></g>
<!-- /image 31735 -->

<!-- image 76407 -->
<g id="transformed-76407" data-image="76407" transform="translate(102.91678208701735, 171.91678208701734) rotate(21, 30.083217912982644, 30.083217912982647)"><g><svg version="1.1" width="60.16643582596529px" height="60.166435825965294px" viewBox="0 0 60.16643582596529 60.166435825965294"><g id="original-76407"><svg xmlns="http://www.w3.org/2000/svg" viewBox="0 0 400 400" xmlns:xlink="http://www.w3.org/1999/xlink" version="1.1" preserveAspectRatio="xMidYMid meet">
  <path d="M230.3 232.5c-3.8-7.2-10.2-12.5-18-14.9-7.8-2.4-16.1-1.6-23.3 2.2-7.2 3.8-12.5 10.2-14.9 18-4.9 16.1 4.2 33.2 20.3 38.1 2.9.9 6 1.3 9 1.3 4.9 0 9.8-1.2 14.3-3.6 7.2-3.8 12.5-10.2 14.9-18 2.3-7.6 1.5-15.9-2.3-23.1zm-7.3 20.3c-3.3 10.8-14.8 17-25.6 13.6-10.8-3.3-17-14.8-13.6-25.6 1.6-5.2 5.2-9.6 10-12.1 3-1.6 6.3-2.4 9.6-2.4 2 0 4 .3 6 .9 5.2 1.6 9.6 5.2 12.1 10 2.6 4.8 3.1 10.4 1.5 15.6z" fill="rgba(221, 221, 221, 1)" stroke="none"/>
  <path d="M207.9 235.3c-2.2 1.6-2.7 4.8-1.1 7 .7.9 3.8 5.7-1.2 10-2.1 1.8-2.4 4.9-.6 7 1 1.2 2.4 1.8 3.8 1.8 1.1 0 2.3-.4 3.2-1.2 9.2-7.7 6.7-18.3 2.8-23.6-1.5-2.1-4.6-2.6-6.9-1z" fill="rgba(221, 221, 221, 1)" stroke="none"/>
  <path d="M201.6 309.6c-2.6-1-5.5.2-6.5 2.7-.8 1.9-1.4 3.7-1.8 5.3-5.9-.9-11.2-.1-15.9 2.6-4.6 2.7-7.7 6.7-9.7 10.3-6.8-5.7-15.8-7.1-22.1-7.2 2.6-10 1.7-17.8.2-23.1 4.3-.6 9.6-2.1 14.1-5.8 4.1-3.5 6.8-8.2 7.9-14 2.7.2 6.2.3 9.8-.3 2.7-.4 4.6-3 4.2-5.7-.4-2.7-3-4.6-5.7-4.2-5.9.9-11.5-.4-11.5-.4-1.5-.4-3 0-4.2.9-1.2.9-1.9 2.3-2 3.8-.2 5.5-1.8 9.6-4.9 12.2-5.5 4.7-14.3 3.7-14.4 3.7-2-.3-3.9.6-5 2.3-1 1.7-1 3.8.1 5.4.3.4 6.8 10.6-.3 28.7-.7 1.7-.4 3.6.8 5 1.1 1.4 2.9 2.1 4.7 1.8.2 0 18.8-2.9 25.4 8.9.9 1.6 2.6 2.6 4.4 2.6.2 0 .5 0 .7-.1 2.1-.3 3.7-1.9 4.1-3.9 0-.1 2-8.6 8.3-12.2 3.5-2 7.9-2.2 13.2-.4 1.4.5 3 .3 4.3-.6 1.3-.8 2.1-2.2 2.3-3.7 0 0 .5-3.9 2.2-8.1 1.1-2.5-.1-5.4-2.7-6.5z" fill="rgba(221, 221, 221, 1)" stroke="none"/>
  <path d="M280.3 302.1c-.1 0-8.9-1-13.2-6.8-2.4-3.2-3.1-7.6-2-13 .3-1.5-.1-3-1.1-4.2-1-1.1-2.4-1.8-3.9-1.8-.5 0-17.9-.1-20.6-12.1-.6-2.7-3.3-4.4-6-3.8-2.7.6-4.4 3.3-3.8 6 1.9 8.4 8 14.5 17.5 17.7 2.7.9 5.2 1.4 7.4 1.7-.2 6 1.3 11.1 4.5 15.5 3.2 4.3 7.6 6.9 11.4 8.4-4.8 7.5-5.1 16.5-4.5 22.8-10.2-1.3-17.9.5-22.9 2.6-1.1-4.2-3.2-9.3-7.5-13.3-3.9-3.7-8.9-5.7-14.9-6.1-.2-5.7-1.6-14.5-7.5-20.8-4.9-5.3-11.8-7.8-20.5-7.4-.9 0-1.7.3-2.4.7l-28.1 17.5c-2.3 1.5-3.1 4.5-1.6 6.9 1.5 2.3 4.5 3.1 6.9 1.6l27-16.8h.1c5 0 8.7 1.4 11.3 4.2 6 6.4 4.7 18.4 4.7 18.5-.2 1.5.3 3 1.4 4.1 1 1.1 2.5 1.6 4 1.5 5.5-.5 9.8.6 12.7 3.4 5.4 4.9 5.4 13.8 5.4 13.8 0 2 1.1 3.8 2.9 4.6.7.3 1.4.5 2.1.5 1.2 0 2.4-.4 3.3-1.2.4-.3 9.8-8 28.5-3.1 1.7.4 3.6-.1 4.8-1.4 1.3-1.3 1.7-3.2 1.2-4.9-.1-.2-5.1-18.3 5.7-26.3 1.7-1.2 2.4-3.4 1.9-5.3-.4-2-2.1-3.5-4.2-3.7z" fill="rgba(221, 221, 221, 1)" stroke="none"/>
  <path d="M221.1 281.1c-2 1.9-2.1 5-.3 7.1l31.3 33.7c1 1.1 2.3 1.6 3.7 1.6 1.2 0 2.4-.4 3.4-1.3 2-1.9 2.1-5 .3-7.1l-31.3-33.7c-1.9-2.1-5-2.2-7.1-.3z" fill="rgba(221, 221, 221, 1)" stroke="none"/>
  <path d="M252.4 261c-.7.4-1.3.9-2 1.3-2.3 1.5-3 4.6-1.4 6.9 1 1.5 2.6 2.3 4.2 2.3.9 0 1.9-.3 2.7-.8.7-.5 1.5-1 2.2-1.5 2.3-1.6 2.8-4.7 1.3-7-1.7-2.2-4.8-2.8-7-1.2z" fill="rgba(221, 221, 221, 1)" stroke="none"/>
  <path d="M256.9 110.8c1.3 1 2.5 2 3.7 3.1.9.8 2.1 1.2 3.3 1.2 1.4 0 2.8-.6 3.8-1.7 1.8-2.1 1.6-5.2-.5-7.1-1.3-1.2-2.7-2.3-4.1-3.4-2.2-1.7-5.3-1.3-7 .8-1.8 2.2-1.4 5.4.8 7.1z" fill="rgba(221, 221, 221, 1)" stroke="none"/>
  <path d="M222.3 93.8c.4.1.8.2 1.2.2 2.2 0 4.3-1.5 4.8-3.8.7-2.7-.9-5.4-3.6-6.1-1.7-.4-3.5-.8-5.2-1.2-2.7-.5-5.3 1.2-5.9 3.9-.5 2.7 1.2 5.3 3.9 5.9 1.7.3 3.3.7 4.8 1.1z" fill="rgba(221, 221, 221, 1)" stroke="none"/>
  <path d="M136.5 115.3c1.2-1.1 2.4-2.2 3.7-3.2 2.1-1.8 2.4-4.9.7-7-1.8-2.1-4.9-2.4-7-.7-1.4 1.1-2.7 2.3-4.1 3.5-2 1.9-2.2 5-.3 7.1 1 1.1 2.3 1.6 3.7 1.6 1.1 0 2.4-.5 3.3-1.3z" fill="rgba(221, 221, 221, 1)" stroke="none"/>
  <path d="M292.9 140.4c-1.2-2.5-4.1-3.6-6.6-2.4-2.5 1.2-3.6 4.2-2.4 6.7.7 1.5 1.3 3 1.9 4.5.8 1.9 2.7 3.1 4.6 3.1.6 0 1.3-.1 1.9-.4 2.6-1 3.8-4 2.7-6.5-.6-1.7-1.3-3.4-2.1-5z" fill="rgba(221, 221, 221, 1)" stroke="none"/>
  <path d="M173 94.5c.4 0 .9-.1 1.3-.2 1.5-.4 3.1-.8 4.7-1.2 2.7-.6 4.4-3.3 3.8-6-.6-2.7-3.3-4.4-6-3.8-1.7.4-3.5.8-5.2 1.3-2.7.7-4.2 3.5-3.5 6.2.7 2.3 2.7 3.7 4.9 3.7z" fill="rgba(221, 221, 221, 1)" stroke="none"/>
  <path d="M112.5 240.1c1 1.5 2.6 2.3 4.2 2.3.9 0 1.9-.3 2.7-.8 2.3-1.5 3-4.6 1.5-6.9-.9-1.4-1.7-2.8-2.5-4.1-1.4-2.4-4.4-3.2-6.8-1.8-2.4 1.4-3.2 4.4-1.8 6.8.8 1.5 1.7 3 2.7 4.5z" fill="rgba(221, 221, 221, 1)" stroke="none"/>
  <path d="M292.3 191.9c-.2 2.8 1.8 5.2 4.6 5.4h.4c2.6 0 4.8-2 5-4.6l.3-5.4c.1-2.8-2.1-5.1-4.8-5.1h-.2c-2.7 0-4.9 2.1-5 4.9-.1 1.5-.2 3.2-.3 4.8z" fill="rgba(221, 221, 221, 1)" stroke="none"/>
  <path d="M100.9 184.3c-2.8.1-4.9 2.5-4.7 5.2.1 1.8.2 3.6.4 5.4.3 2.6 2.4 4.5 5 4.5h.5c2.7-.3 4.7-2.7 4.5-5.5-.2-1.6-.3-3.2-.4-4.8-.1-2.8-2.5-4.9-5.3-4.8z" fill="rgba(221, 221, 221, 1)" stroke="none"/>
  <path d="M112.2 151l1.8-4.5c1.1-2.5 0-5.5-2.6-6.6-2.5-1.1-5.5 0-6.6 2.6-.7 1.6-1.4 3.3-2 5-1 2.6.3 5.5 2.9 6.5.6.2 1.2.3 1.8.3 2-.1 3.9-1.3 4.7-3.3z" fill="rgba(221, 221, 221, 1)" stroke="none"/>
  <path d="M281.3 228.8l-2.4 4.2c-1.4 2.4-.7 5.4 1.6 6.9.8.5 1.7.7 2.6.7 1.7 0 3.3-.8 4.3-2.4.9-1.5 1.8-3.1 2.7-4.6 1.3-2.4.4-5.5-2-6.8-2.4-1.3-5.5-.4-6.8 2z" fill="rgba(221, 221, 221, 1)" stroke="none"/>
  <path d="M148.2 262.2c-2.3-1.5-5.4-.9-6.9 1.4s-.9 5.4 1.4 6.9c.7.5 1.5 1 2.2 1.4.8.5 1.7.8 2.6.8 1.7 0 3.3-.8 4.3-2.4 1.5-2.3.7-5.4-1.6-6.9-.7-.3-1.4-.8-2-1.2z" fill="rgba(221, 221, 221, 1)" stroke="none"/>
  <path d="M159.9 254.1c.8.5 1.7.8 2.6.8 1.7 0 3.3-.8 4.3-2.4 1.5-2.3.7-5.4-1.6-6.9-20-12.4-31.9-33.8-31.9-57.3 0-37.2 30.3-67.4 67.4-67.4s67.4 30.3 67.4 67.4c0 19.4-8.4 38-23.1 50.8-2.1 1.8-2.3 5-.5 7.1 1.8 2.1 5 2.3 7.1.5 16.8-14.7 26.5-36 26.5-58.3 0-42.7-34.7-77.4-77.4-77.4s-77.4 34.7-77.4 77.4c0 26.8 13.7 51.4 36.6 65.7z" fill="rgba(221, 221, 221, 1)" stroke="none"/>
  <path d="M328.5 203.1c3.3-6.4 7.4-14.5 7.4-23.8 0-9.4-4.5-16-8.4-21.9-2.5-3.8-4.9-7.3-6.3-11.5-1.2-3.8-1.1-8.3-.9-13.1.2-6.9.5-14.6-3.7-21.1-3.4-5.2-10.2-8.3-16.7-11.2-4.2-1.9-8.5-3.9-10.7-6-2.3-2.3-4.5-6-6.8-9.8-3.6-6-7.3-12.3-12.9-15.7-6.9-4.2-14.8-4.5-22.5-4.8-4.8-.2-9.3-.4-13.4-1.4-3.5-.9-7.3-2.9-11.4-5.1-6.8-3.6-13.8-7.2-21.5-7.2-8.7 0-16.6 4-24.2 7.9-4.3 2.2-8.3 4.2-12 5.3-3.9 1.2-8.5 1.4-13.4 1.6-7.7.3-15.7.7-22.3 4.9-5.2 3.3-8.1 9.2-10.9 14.9-1.8 3.6-3.7 7.4-5.7 9.4-2.2 2.2-7 4.4-11.7 6.5-7.2 3.3-14.6 6.7-18.1 12.2-4.1 6.4-3.2 13.8-2.3 20.3.6 4.6 1.2 9 .1 12.5-1.4 4.2-4 7.7-6.9 11.5-4.4 5.8-9.3 12.4-9.3 21.7 0 6.4 3.9 13.9 7.6 21.2 2.3 4.4 4.6 9 5.3 11.9.7 3.2-.1 7.8-1 12.4-1.2 6.9-2.5 14 .4 20 3 6.2 9.4 9.6 15.5 13 4 2.1 8 4.3 10 6.8 1.3 1.6 2.1 5 3 8.2 1.6 6.1 3.3 12.9 9.4 15.8 1.7.8 3.5 1.2 5.4 1.2 3 0 6.3-.9 10-2.6 2.5-1.2 3.6-4.2 2.4-6.7-1.2-2.5-4.2-3.6-6.7-2.4-4.5 2.1-6.4 1.7-7 1.5-1.8-.9-3-5.5-4-9.2-1.1-4.3-2.2-8.7-4.9-12-3.3-4-8.2-6.7-13.1-9.3-4.8-2.6-9.7-5.2-11.3-8.5-1.5-3.1-.5-8.6.5-14 1-5.5 2-11.1.9-16.3-.9-4.2-3.5-9.1-6.2-14.4-3.1-5.9-6.5-12.7-6.5-16.6 0-6 3.4-10.5 7.3-15.7 3.2-4.3 6.5-8.7 8.4-14.4 1.8-5.7 1-11.6.3-16.9-.7-5.5-1.4-10.2.7-13.5 2-3 8.3-5.9 13.9-8.5 5.7-2.6 11-5.1 14.5-8.4 3.3-3.2 5.5-7.8 7.7-12.2 2.2-4.5 4.5-9.1 7.3-10.9 4.3-2.8 10.7-3 17.3-3.3 5.3-.2 10.7-.5 15.8-2 4.6-1.4 9.3-3.7 13.7-6 6.6-3.4 13.4-6.8 19.6-6.8 5.3 0 11.2 3.1 16.9 6.1 4.3 2.3 8.8 4.6 13.4 5.9 5.1 1.4 10.4 1.6 15.6 1.8 6.7.3 13.1.5 17.7 3.3 3.5 2.1 6.5 7.3 9.5 12.2 2.5 4.3 5.2 8.7 8.4 11.9 3.4 3.3 8.3 5.5 13.5 7.9 5 2.3 10.7 4.9 12.5 7.7 2.5 3.8 2.3 9.3 2.1 15.2-.2 5.5-.4 11.1 1.4 16.6 1.8 5.5 4.7 9.8 7.5 13.9 3.6 5.4 6.7 10 6.7 16.3 0 6.9-3.2 13.1-6.3 19.2-2.1 4.1-4 7.9-4.9 11.7-1 4.4 0 9.6 1.1 15.2.9 4.5 2 10.2 1 12.5-1.6 3.7-6 6.2-10.7 8.8-4.6 2.6-9.4 5.2-12.8 9.7-2.8 3.6-3.7 8.2-4.5 12.3-.8 3.9-1.5 7.6-3.6 9-1.8 1.2-5.4 1.2-10.2.1-2.7-.6-5.4 1.1-6 3.8-.6 2.7 1.1 5.4 3.8 6 7.8 1.8 13.6 1.3 17.9-1.5 5.6-3.6 6.9-10.2 8-15.4.7-3.3 1.3-6.4 2.6-8.1 2.1-2.8 5.8-4.8 9.8-7 5.7-3.1 12.1-6.7 15-13.6 2.2-5.1.9-11.8-.4-18.3-.8-4.1-1.7-8.8-1.2-11.2 1-2.8 2.7-6 4.5-9.5z" fill="rgba(221, 221, 221, 1)" stroke="none"/>
</svg>
</g></svg></g></g>
<!-- /image 76407 -->
</defs><rect x="0" y="0" width="250" height="250" fill="rgba(108, 139, 108, 1)"></rect><use xlink:href="#transformed-95677" transform="translate(-250, -250)"></use><use xlink:href="#transformed-95677" transform="translate(0, -250)"></use><use xlink:href="#transformed-95677" transform="translate(250, -250)"></use><use xlink:href="#transformed-95677" transform="translate(-250, 0)"></use><use xlink:href="#transformed-95677" transform="translate(0, 0)"></use><use xlink:href="#transformed-95677" transform="translate(250, 0)"></use><use xlink:href="#transformed-95677" transform="translate(-250, 250)"></use><use xlink:href="#transformed-95677" transform="translate(0, 250)"></use><use xlink:href="#transformed-95677" transform="translate(250, 250)"></use><use xlink:href="#transformed-50333" transform="translate(-250, -250)"></use><use xlink:href="#transformed-50333" transform="translate(0, -250)"></use><use xlink:href="#transformed-50333" transform="translate(250, -250)"></use><use xlink:href="#transformed-50333" transform="translate(-250, 0)"></use><use xlink:href="#transformed-50333" transform="translate(0, 0)"></use><use xlink:href="#transformed-50333" transform="translate(250, 0)"></use><use xlink:href="#transformed-50333" transform="translate(-250, 250)"></use><use xlink:href="#transformed-50333" transform="translate(0, 250)"></use><use xlink:href="#transformed-50333" transform="translate(250, 250)"></use><use xlink:href="#transformed-88001" transform="translate(-250, -250)"></use><use xlink:href="#transformed-88001" transform="translate(0, -250)"></use><use xlink:href="#transformed-88001" transform="translate(250, -250)"></use><use xlink:href="#transformed-88001" transform="translate(-250, 0)"></use><use xlink:href="#transformed-88001" transform="translate(0, 0)"></use><use xlink:href="#transformed-88001" transform="translate(250, 0)"></use><use xlink:href="#transformed-88001" transform="translate(-250, 250)"></use><use xlink:href="#transformed-88001" transform="translate(0, 250)"></use><use xlink:href="#transformed-88001" transform="translate(250, 250)"></use><use xlink:href="#transformed-45562" transform="translate(-250, -250)"></use><use xlink:href="#transformed-45562" transform="translate(0, -250)"></use><use xlink:href="#transformed-45562" transform="translate(250, -250)"></use><use xlink:href="#transformed-45562" transform="translate(-250, 0)"></use><use xlink:href="#transformed-45562" transform="translate(0, 0)"></use><use xlink:href="#transformed-45562" transform="translate(250, 0)"></use><use xlink:href="#transformed-45562" transform="translate(-250, 250)"></use><use xlink:href="#transformed-45562" transform="translate(0, 250)"></use><use xlink:href="#transformed-45562" transform="translate(250, 250)"></use><use xlink:href="#transformed-56158" transform="translate(-250, -250)"></use><use xlink:href="#transformed-56158" transform="translate(0, -250)"></use><use xlink:href="#transformed-56158" transform="translate(250, -250)"></use><use xlink:href="#transformed-56158" transform="translate(-250, 0)"></use><use xlink:href="#transformed-56158" transform="translate(0, 0)"></use><use xlink:href="#transformed-56158" transform="translate(250, 0)"></use><use xlink:href="#transformed-56158" transform="translate(-250, 250)"></use><use xlink:href="#transformed-56158" transform="translate(0, 250)"></use><use xlink:href="#transformed-56158" transform="translate(250, 250)"></use><use xlink:href="#transformed-24703" transform="translate(-250, -250)"></use><use xlink:href="#transformed-24703" transform="translate(0, -250)"></use><use xlink:href="#transformed-24703" transform="translate(250, -250)"></use><use xlink:href="#transformed-24703" transform="translate(-250, 0)"></use><use xlink:href="#transformed-24703" transform="translate(0, 0)"></use><use xlink:href="#transformed-24703" transform="translate(250, 0)"></use><use xlink:href="#transformed-24703" transform="translate(-250, 250)"></use><use xlink:href="#transformed-24703" transform="translate(0, 250)"></use><use xlink:href="#transformed-24703" transform="translate(250, 250)"></use><use xlink:href="#transformed-31735" transform="translate(-250, -250)"></use><use xlink:href="#transformed-31735" transform="translate(0, -250)"></use><use xlink:href="#transformed-31735" transform="translate(250, -250)"></use><use xlink:href="#transformed-31735" transform="translate(-250, 0)"></use><use xlink:href="#transformed-31735" transform="translate(0, 0)"></use><use xlink:href="#transformed-31735" transform="translate(250, 0)"></use><use xlink:href="#transformed-31735" transform="translate(-250, 250)"></use><use xlink:href="#transformed-31735" transform="translate(0, 250)"></use><use xlink:href="#transformed-31735" transform="translate(250, 250)"></use><use xlink:href="#transformed-76407" transform="translate(-250, -250)"></use><use xlink:href="#transformed-76407" transform="translate(0, -250)"></use><use xlink:href="#transformed-76407" transform="translate(250, -250)"></use><use xlink:href="#transformed-76407" transform="translate(-250, 0)"></use><use xlink:href="#transformed-76407" transform="translate(0, 0)"></use><use xlink:href="#transformed-76407" transform="translate(250, 0)"></use><use xlink:href="#transformed-76407" transform="translate(-250, 250)"></use><use xlink:href="#transformed-76407" transform="translate(0, 250)"></use><use xlink:href="#transformed-76407" transform="translate(250, 250)"></use></svg>