<svg version="1.1"
      xmlns="http://www.w3.org/2000/svg"
      xmlns:xlink="http://www.w3.org/1999/xlink"  id="snapshot-22260" width="250" height="250" viewBox="0 0 250 250"><desc>This image was made on Patterninja.com</desc><defs>
<!-- image 25339 -->
<g id="transformed-25339" data-image="25339" transform="translate(-45.27692569068709, -45.27692569068707) rotate(43, 45.27692569068709, 45.27692569068707)"><g><svg version="1.1" width="90.55385138137417px" height="90.55385138137414px" viewBox="0 0 90.55385138137417 90.55385138137414"><g id="original-25339"><svg xmlns="http://www.w3.org/2000/svg" viewBox="0 0 400 400" xmlns:xlink="http://www.w3.org/1999/xlink" version="1.1" preserveAspectRatio="xMidYMid meet">
  <path d="M214.5 173.2c7.2 9.6 12.4 20.9 15.1 32.7.5 2.3 2.6 3.9 4.9 3.9.4 0 .7 0 1.1-.1 2.7-.6 4.4-3.3 3.8-6-2.9-13.2-8.7-25.8-16.8-36.5-1.7-2.2-4.8-2.6-7-1-2.3 1.7-2.7 4.8-1.1 7z" fill="rgba(170, 100, 101, 1)" stroke="none"/>
  <circle cx="208.9" cy="160" r="5.9" fill="rgba(170, 100, 101, 1)" stroke="none"/>
  <path d="M259.6 219.2c0-.5-.1-1.1-.3-1.6-1.3-21.4-7.1-41.3-16.7-56.8-4.9-7.9-10.6-14.3-16.8-19 .2-.6.4-1.2.4-1.9v-19c0-9.4-7.6-17-17-17h-20c-9.4 0-17 7.6-17 17v19c0 .7.1 1.3.4 1.9-20.7 15.6-33.8 48.2-33.8 84.7 0 31.4 13.1 54.8 20.9 66 12.2 17.4 27.3 28.3 39.5 28.3 22.8 0 60.4-44 60.4-94.2 0-2.1-.1-4.2-.1-6.3.1-.4.1-.7.1-1.1zm-77.9-71.5c2.3-1.5 3-4.6 1.6-6.9-.3-.5-.7-.8-1-1.2V121c0-3.9 3.1-7 7-7h20c3.9 0 7 3.1 7 7v15.1c-5.4-2.4-11.1-3.7-17-3.7-2.2 0-4.4.2-6.6.5-2.7.5-4.6 3-4.1 5.8.5 2.7 3 4.6 5.8 4.1 1.6-.3 3.3-.4 4.9-.4 13 0 25.4 8.4 34.9 23.8 8.2 13.1 13.3 29.9 14.9 48h-99.7c2.7-29.8 15-55.6 32.3-66.5zm67.9 78.9c0 10.2-1.6 19.5-4 27.7h-93c-2.4-8.6-3.8-17.9-3.8-27.7v-2.4h100.8v2.4zm-50.4 84.2c-12 0-32.5-18.5-43.3-46.5h86.2c-4 9.8-8.7 17.5-12.3 22.5-11.3 15.8-23.9 24-30.6 24z" fill="rgba(170, 100, 101, 1)" stroke="none"/>
  <path d="M198.7 249.9c7 0 12.7-5.7 12.7-12.7 0-7-5.7-12.7-12.7-12.7-7 0-12.7 5.7-12.7 12.7 0 7 5.7 12.7 12.7 12.7zm0-15.3c1.5 0 2.7 1.2 2.7 2.7 0 1.5-1.2 2.7-2.7 2.7-1.5 0-2.7-1.2-2.7-2.7 0-1.5 1.2-2.7 2.7-2.7z" fill="rgba(170, 100, 101, 1)" stroke="none"/>
  <path d="M167.1 249.9c7 0 12.7-5.7 12.7-12.7 0-7-5.7-12.7-12.7-12.7-7 0-12.7 5.7-12.7 12.7 0 7 5.7 12.7 12.7 12.7zm0-15.3c1.5 0 2.7 1.2 2.7 2.7 0 1.5-1.2 2.7-2.7 2.7-1.5 0-2.7-1.2-2.7-2.7 0-1.5 1.2-2.7 2.7-2.7z" fill="rgba(170, 100, 101, 1)" stroke="none"/>
  <path d="M230.5 249.9c7 0 12.7-5.7 12.7-12.7 0-7-5.7-12.7-12.7-12.7-7 0-12.7 5.7-12.7 12.7 0 7 5.7 12.7 12.7 12.7zm0-15.3c1.5 0 2.7 1.2 2.7 2.7 0 1.5-1.2 2.7-2.7 2.7-1.5 0-2.7-1.2-2.7-2.7 0-1.5 1.2-2.7 2.7-2.7z" fill="rgba(170, 100, 101, 1)" stroke="none"/>
  <path d="M183.7 101.3c2.8 0 5-2.2 5-5 0-5.5 4.5-10 10-10s10 4.5 10 10c0 2.8 2.2 5 5 5s5-2.2 5-5c0-11-9-20-20-20s-20 9-20 20c0 2.8 2.2 5 5 5z" fill="rgba(170, 100, 101, 1)" stroke="none"/>
</svg>
</g></svg></g></g>
<!-- /image 25339 -->

<!-- image 32148 -->
<g id="transformed-32148" data-image="32148" transform="translate(79.8589120197627, 197.8589120197627) rotate(330, 46.14108798023731, 46.141087980237295)"><g><svg version="1.1" width="92.28217596047462px" height="92.28217596047459px" viewBox="0 0 92.28217596047462 92.28217596047459"><g id="original-32148"><svg xmlns="http://www.w3.org/2000/svg" viewBox="0 0 400 400" xmlns:xlink="http://www.w3.org/1999/xlink" version="1.1" preserveAspectRatio="xMidYMid meet">
  <path d="M222.3 167.2c-1.7-2.2-4.8-2.6-7-1-2.2 1.7-2.6 4.8-1 7 10.6 14.1 16.7 31.6 17 49.3.1 2.7 2.3 4.9 5 4.9h.1c2.8-.1 5-2.3 4.9-5.1-.4-19.7-7.1-39.3-19-55.1z" fill="rgba(170, 100, 101, 1)" stroke="none"/>
  <circle cx="208.6" cy="160" r="5.9" fill="rgba(170, 100, 101, 1)" stroke="none"/>
  <path d="M242.4 160.9c-4.9-7.9-10.6-14.3-16.8-19 .2-.6.4-1.2.4-1.9v-19c0-9.4-7.6-17-17-17h-20c-9.4 0-17 7.6-17 17v19c0 .7.1 1.3.4 1.9-20.7 15.6-33.8 48.2-33.8 84.7 0 31.4 13.1 54.8 20.9 66 12.2 17.4 27.3 28.3 39.5 28.3 22.8 0 60.4-44 60.4-94.2 0-24.9-6.1-48.2-17-65.8zM199 310.8c-16.8 0-50.4-36.4-50.4-84.2 0-34.8 13.2-66.5 32.9-78.9 2.3-1.5 3-4.6 1.6-6.9-.3-.5-.7-.8-1-1.2V121c0-3.9 3.1-7 7-7h20c3.9 0 7 3.1 7 7v15.1c-5.4-2.4-11.1-3.7-17-3.7-2.2 0-4.4.2-6.6.5-2.7.5-4.6 3-4.1 5.8.5 2.7 3 4.6 5.8 4.1 1.6-.3 3.3-.4 4.9-.4 13 0 25.4 8.4 34.9 23.8 10 16.1 15.5 37.5 15.5 60.5 0 28.2-12.4 49.8-19.8 60.2-11.4 15.7-24.1 23.9-30.7 23.9z" fill="rgba(170, 100, 101, 1)" stroke="none"/>
  <path d="M184 101.3c2.8 0 5-2.2 5-5 0-5.5 4.5-10 10-10s10 4.5 10 10c0 2.8 2.2 5 5 5s5-2.2 5-5c0-11-9-20-20-20s-20 9-20 20c0 2.8 2.2 5 5 5z" fill="rgba(170, 100, 101, 1)" stroke="none"/>
</svg>
</g></svg></g></g>
<!-- /image 32148 -->

<!-- image 20195 -->
<g id="transformed-20195" data-image="20195" transform="translate(149.07507044464575, 131.07507044464575) rotate(22, 39.92492955535426, 39.924929555354254)"><g><svg version="1.1" width="79.84985911070852px" height="79.84985911070851px" viewBox="0 0 79.84985911070852 79.84985911070851"><g id="original-20195"><svg xmlns="http://www.w3.org/2000/svg" viewBox="0 0 400 400" xmlns:xlink="http://www.w3.org/1999/xlink" version="1.1" preserveAspectRatio="xMidYMid meet">
  <path d="M316.2 246c0-7.7-.5-24.4-3.9-44.1-6.3-36-19.1-63.2-37.9-80.9-18.9-17.8-43.5-25.3-73.1-22.3-32.9 3.3-59.7 24.1-77.5 60-13.2 26.7-16.8 52-17 53.1-.2 1.5.3 3 1.3 4.1 1 1.1 2.5 1.7 4 1.6 8.6-.6 17.6-8.6 26.3-16.4 5.6-5 12-10.7 15.7-11.6 2.7-.7 4.3-3.4 3.7-6-.7-2.7-3.4-4.3-6-3.7-6.1 1.5-12.9 7.5-20 13.8-4.2 3.8-9.1 8.1-13.4 10.9 2.1-9.5 6.4-25.4 14.5-41.6 16.4-33 39.8-51.3 69.4-54.3 26.6-2.7 48.5 3.9 65.2 19.6 35.5 33.4 38.5 98.8 38.7 117H158.6c-.2-17.6 4.2-29 7.8-38.3 6.8-17.3 9.4-28-16.4-46.9-2.2-1.6-5.4-1.2-7 1.1-1.6 2.2-1.2 5.4 1.1 7 20.8 15.3 18.7 20.7 13 35.2-3.7 9.6-8.7 22.4-8.5 41.9h-6.7c-9.4 0-17 7.6-17 17V285c0 9.4 7.6 17 17 17h169.2c9.4 0 17-7.6 17-17v-22.8c0-7.5-5-14-11.9-16.2zm1.9 39c0 3.9-3.1 7-7 7H141.9c-3.9 0-7-3.1-7-7v-22.8c0-3.9 3.1-7 7-7h169.2c3.9 0 7 3.1 7 7V285z" fill="rgba(170, 100, 101, 1)" stroke="none"/>
  <path d="M95.1 214.4c-14.3 0-26 11.6-26 26 0 14.3 11.6 26 26 26s26-11.6 26-26c-.1-14.3-11.7-26-26-26zm0 41.9c-8.8 0-16-7.2-16-16s7.2-16 16-16 16 7.2 16 16-7.2 16-16 16z" fill="rgba(170, 100, 101, 1)" stroke="none"/>
</svg>
</g></svg></g></g>
<!-- /image 20195 -->

<!-- image 17491 -->
<g id="transformed-17491" data-image="17491" transform="translate(20.175384496520252, 129.17538449652025) rotate(331, 39.82461550347975, 39.824615503479755)"><g><svg version="1.1" width="79.6492310069595px" height="79.64923100695951px" viewBox="0 0 79.6492310069595 79.64923100695951"><g id="original-17491"><svg xmlns="http://www.w3.org/2000/svg" viewBox="0 0 400 400" xmlns:xlink="http://www.w3.org/1999/xlink" version="1.1" preserveAspectRatio="xMidYMid meet">
  <path d="M282.2 144h-52.8c1.5-.7 3-1.4 4.6-2.1 7.1-3.4 12.7-6.5 17.1-9.4.1-.1.3-.2.4-.3 15.5-10.2 16.1-17.3 16.4-20 .6-6.6-3.4-12.3-12-16.9-6.7-3.6-13.6-4-20.6-1.3-5.2 2.1-10 5.9-14.3 10.6-.3.3-.6.6-.8.9-6.2 7.1-11.4 15.9-15.2 23.6-1-12.6-5.2-32.7-21.6-42.7-20.2-12.2-39.8 3.8-47.7 14.4-.9.8-1.8 1.7-2.6 2.7-5.2 5.9-4.8 11.4-3.6 15 3.1 9.1 15.6 17.2 38.4 24.9.5.2 1 .3 1.5.5h-52.8c-9.4 0-17 7.6-17 17v42c0 9.4 7.6 17 17 17h62V313h-43.2c-3.9 0-7-3.1-7-7v-73c0-2.8-2.2-5-5-5s-5 2.2-5 5v73.1c0 9.4 7.6 17 17 17H265c9.4 0 17-7.6 17-17V233c0-2.8-2.2-5-5-5s-5 2.2-5 5v73.1c0 3.9-3.1 7-7 7h-44.7V220h61.9c9.4 0 17-7.6 17-17v-42c0-9.4-7.7-17-17-17zm-69.4 10v56H191v-56h9.1c.6.2 1.2.3 1.8.3.5 0 1-.1 1.6-.2 0 0 .1 0 .3-.1h9zm31.4-51.7c2.3 0 4.6.6 6.9 1.9 3.2 1.7 7 4.4 6.7 7.2-.2 2.3-2.1 4.9-5.2 7.6-1.1-4-3.1-7.3-6-9.9-2.8-2.6-6.2-4.1-9.5-4.9.6-.3 1.2-.6 1.8-.8 1.8-.8 3.5-1.1 5.3-1.1zm-17.4 10.8c3.5-.2 9.6.2 13.2 3.4 2.2 2 3.4 4.9 3.6 8.9-9.3 5.6-21.6 11.2-33 15.5 3.7-8.7 9.4-19.7 16.2-27.8zM178.2 95c12.2 7.4 15.7 23.3 16.7 33.9-9-13.2-23-30.1-37.9-33.8 7.6-4.1 14.5-4.1 21.2-.1zm-39.3 20.3c-.2-.7-.8-2.4 1.7-5.3 3.3-3.8 6.8-5.6 10.7-5.6.5 0 1 0 1.5.1 13 1.5 28.2 21 37.2 35.1-22.3-5.7-48.1-15.4-51.1-24.3zM109.6 203v-42c0-3.9 3.1-7 7-7H181v56h-64.5c-3.8 0-6.9-3.1-6.9-7zm79 110.1V220h21.7v93.1h-21.7zM289.2 203c0 3.9-3.1 7-7 7h-59.4v-56h59.4c3.9 0 7 3.1 7 7v42z" fill="rgba(170, 100, 101, 1)" stroke="none"/>
</svg>
</g></svg></g></g>
<!-- /image 17491 -->

<!-- image 59850 -->
<g id="transformed-59850" data-image="59850" transform="translate(147.29373512590476, 29.293735125904767) rotate(27, 40.70626487409524, 40.70626487409523)"><g><svg version="1.1" width="81.41252974819048px" height="81.41252974819047px" viewBox="0 0 81.41252974819048 81.41252974819047"><g id="original-59850"><svg xmlns="http://www.w3.org/2000/svg" viewBox="0 0 400 400" xmlns:xlink="http://www.w3.org/1999/xlink" version="1.1" preserveAspectRatio="xMidYMid meet">
  <path d="M282.2 144h-52.8c1.5-.7 3-1.4 4.6-2.1 7.1-3.4 12.7-6.5 17.1-9.4.1-.1.3-.2.4-.3 15.5-10.2 16.1-17.3 16.4-20 .6-6.6-3.4-12.3-12-16.9-6.7-3.6-13.6-4-20.6-1.3-5.2 2.1-10 5.9-14.3 10.6-.3.3-.6.6-.8.9-6.2 7.1-11.4 15.9-15.2 23.6-1-12.6-5.2-32.7-21.6-42.7-20.2-12.2-39.8 3.8-47.7 14.4-.9.8-1.8 1.7-2.6 2.7-5.2 5.9-4.8 11.4-3.6 15 3.1 9.1 15.6 17.2 38.4 24.9.5.2 1 .3 1.5.5h-52.8c-9.4 0-17 7.6-17 17v42c0 9.4 7.6 17 17 17h62V313h-43.2c-3.9 0-7-3.1-7-7v-73c0-2.8-2.2-5-5-5s-5 2.2-5 5v73.1c0 9.4 7.6 17 17 17H265c9.4 0 17-7.6 17-17V233c0-2.8-2.2-5-5-5s-5 2.2-5 5v73.1c0 3.9-3.1 7-7 7h-44.7V220h61.9c9.4 0 17-7.6 17-17v-42c0-9.4-7.7-17-17-17zm-69.4 10v56H191v-56h9.1c.6.2 1.2.3 1.8.3.5 0 1-.1 1.6-.2 0 0 .1 0 .3-.1h9zm31.4-51.7c2.3 0 4.6.6 6.9 1.9 3.2 1.7 7 4.4 6.7 7.2-.2 2.3-2.1 4.9-5.2 7.6-1.1-4-3.1-7.3-6-9.9-2.8-2.6-6.2-4.1-9.5-4.9.6-.3 1.2-.6 1.8-.8 1.8-.8 3.5-1.1 5.3-1.1zm-17.4 10.8c3.5-.2 9.6.2 13.2 3.4 2.2 2 3.4 4.9 3.6 8.9-9.3 5.6-21.6 11.2-33 15.5 3.7-8.7 9.4-19.7 16.2-27.8zM178.2 95c12.2 7.4 15.7 23.3 16.7 33.9-9-13.2-23-30.1-37.9-33.8 7.6-4.1 14.5-4.1 21.2-.1zm-39.3 20.3c-.2-.7-.8-2.4 1.7-5.3 3.3-3.8 6.8-5.6 10.7-5.6.5 0 1 0 1.5.1 13 1.5 28.2 21 37.2 35.1-22.3-5.7-48.1-15.4-51.1-24.3zM109.6 203v-42c0-3.9 3.1-7 7-7H181v56h-64.5c-3.8 0-6.9-3.1-6.9-7zm79 110.1V220h21.7v93.1h-21.7zM289.2 203c0 3.9-3.1 7-7 7h-59.4v-56h59.4c3.9 0 7 3.1 7 7v42z" fill="rgba(170, 100, 101, 1)" stroke="none"/>
</svg>
</g></svg></g></g>
<!-- /image 59850 -->

<!-- image 41999 -->
<g id="transformed-41999" data-image="41999" transform="translate(18.583413307815192, 22.583413307815178) rotate(321, 43.41658669218481, 43.41658669218482)"><g><svg version="1.1" width="86.83317338436962px" height="86.83317338436964px" viewBox="0 0 86.83317338436962 86.83317338436964"><g id="original-41999"><svg xmlns="http://www.w3.org/2000/svg" viewBox="0 0 400 400" xmlns:xlink="http://www.w3.org/1999/xlink" version="1.1" preserveAspectRatio="xMidYMid meet">
  <path d="M316.2 246c0-7.7-.5-24.4-3.9-44.1-6.3-36-19.1-63.2-37.9-80.9-18.9-17.8-43.5-25.3-73.1-22.3-32.9 3.3-59.7 24.1-77.5 60-13.2 26.7-16.8 52-17 53.1-.2 1.5.3 3 1.3 4.1 1 1.1 2.5 1.7 4 1.6 8.6-.6 17.6-8.6 26.3-16.4 5.6-5 12-10.7 15.7-11.6 2.7-.7 4.3-3.4 3.7-6-.7-2.7-3.4-4.3-6-3.7-6.1 1.5-12.9 7.5-20 13.8-4.2 3.8-9.1 8.1-13.4 10.9 2.1-9.5 6.4-25.4 14.5-41.6 16.4-33 39.8-51.3 69.4-54.3 26.6-2.7 48.5 3.9 65.2 19.6 35.5 33.4 38.5 98.8 38.7 117H158.6c-.2-17.6 4.2-29 7.8-38.3 6.8-17.3 9.4-28-16.4-46.9-2.2-1.6-5.4-1.2-7 1.1-1.6 2.2-1.2 5.4 1.1 7 20.8 15.3 18.7 20.7 13 35.2-3.7 9.6-8.7 22.4-8.5 41.9h-6.7c-9.4 0-17 7.6-17 17V285c0 9.4 7.6 17 17 17h169.2c9.4 0 17-7.6 17-17v-22.8c0-7.5-5-14-11.9-16.2zm1.9 39c0 3.9-3.1 7-7 7H141.9c-3.9 0-7-3.1-7-7v-22.8c0-3.9 3.1-7 7-7h169.2c3.9 0 7 3.1 7 7V285z" fill="rgba(170, 100, 101, 1)" stroke="none"/>
  <path d="M95.1 214.4c-14.3 0-26 11.6-26 26 0 14.3 11.6 26 26 26s26-11.6 26-26c-.1-14.3-11.7-26-26-26zm0 41.9c-8.8 0-16-7.2-16-16s7.2-16 16-16 16 7.2 16 16-7.2 16-16 16z" fill="rgba(170, 100, 101, 1)" stroke="none"/>
</svg>
</g></svg></g></g>
<!-- /image 41999 -->
</defs><rect x="0" y="0" width="250" height="250" fill="rgba(177, 133, 133, 1)"></rect><use xlink:href="#transformed-25339" transform="translate(-250, -250)"></use><use xlink:href="#transformed-25339" transform="translate(0, -250)"></use><use xlink:href="#transformed-25339" transform="translate(250, -250)"></use><use xlink:href="#transformed-25339" transform="translate(-250, 0)"></use><use xlink:href="#transformed-25339" transform="translate(0, 0)"></use><use xlink:href="#transformed-25339" transform="translate(250, 0)"></use><use xlink:href="#transformed-25339" transform="translate(-250, 250)"></use><use xlink:href="#transformed-25339" transform="translate(0, 250)"></use><use xlink:href="#transformed-25339" transform="translate(250, 250)"></use><use xlink:href="#transformed-32148" transform="translate(-250, -250)"></use><use xlink:href="#transformed-32148" transform="translate(0, -250)"></use><use xlink:href="#transformed-32148" transform="translate(250, -250)"></use><use xlink:href="#transformed-32148" transform="translate(-250, 0)"></use><use xlink:href="#transformed-32148" transform="translate(0, 0)"></use><use xlink:href="#transformed-32148" transform="translate(250, 0)"></use><use xlink:href="#transformed-32148" transform="translate(-250, 250)"></use><use xlink:href="#transformed-32148" transform="translate(0, 250)"></use><use xlink:href="#transformed-32148" transform="translate(250, 250)"></use><use xlink:href="#transformed-20195" transform="translate(-250, -250)"></use><use xlink:href="#transformed-20195" transform="translate(0, -250)"></use><use xlink:href="#transformed-20195" transform="translate(250, -250)"></use><use xlink:href="#transformed-20195" transform="translate(-250, 0)"></use><use xlink:href="#transformed-20195" transform="translate(0, 0)"></use><use xlink:href="#transformed-20195" transform="translate(250, 0)"></use><use xlink:href="#transformed-20195" transform="translate(-250, 250)"></use><use xlink:href="#transformed-20195" transform="translate(0, 250)"></use><use xlink:href="#transformed-20195" transform="translate(250, 250)"></use><use xlink:href="#transformed-17491" transform="translate(-250, -250)"></use><use xlink:href="#transformed-17491" transform="translate(0, -250)"></use><use xlink:href="#transformed-17491" transform="translate(250, -250)"></use><use xlink:href="#transformed-17491" transform="translate(-250, 0)"></use><use xlink:href="#transformed-17491" transform="translate(0, 0)"></use><use xlink:href="#transformed-17491" transform="translate(250, 0)"></use><use xlink:href="#transformed-17491" transform="translate(-250, 250)"></use><use xlink:href="#transformed-17491" transform="translate(0, 250)"></use><use xlink:href="#transformed-17491" transform="translate(250, 250)"></use><use xlink:href="#transformed-59850" transform="translate(-250, -250)"></use><use xlink:href="#transformed-59850" transform="translate(0, -250)"></use><use xlink:href="#transformed-59850" transform="translate(250, -250)"></use><use xlink:href="#transformed-59850" transform="translate(-250, 0)"></use><use xlink:href="#transformed-59850" transform="translate(0, 0)"></use><use xlink:href="#transformed-59850" transform="translate(250, 0)"></use><use xlink:href="#transformed-59850" transform="translate(-250, 250)"></use><use xlink:href="#transformed-59850" transform="translate(0, 250)"></use><use xlink:href="#transformed-59850" transform="translate(250, 250)"></use><use xlink:href="#transformed-41999" transform="translate(-250, -250)"></use><use xlink:href="#transformed-41999" transform="translate(0, -250)"></use><use xlink:href="#transformed-41999" transform="translate(250, -250)"></use><use xlink:href="#transformed-41999" transform="translate(-250, 0)"></use><use xlink:href="#transformed-41999" transform="translate(0, 0)"></use><use xlink:href="#transformed-41999" transform="translate(250, 0)"></use><use xlink:href="#transformed-41999" transform="translate(-250, 250)"></use><use xlink:href="#transformed-41999" transform="translate(0, 250)"></use><use xlink:href="#transformed-41999" transform="translate(250, 250)"></use></svg>