<svg version="1.1"
      xmlns="http://www.w3.org/2000/svg"
      xmlns:xlink="http://www.w3.org/1999/xlink"  id="snapshot-00635" width="250" height="250" viewBox="0 0 250 250"><desc>This image was made on Patterninja.com</desc><defs>
<!-- image 35988 -->
<g id="transformed-35988" data-image="35988" transform="translate(-51.478150704935004, -51.47815070493498) rotate(352, 51.478150704935004, 51.47815070493498)"><g><svg version="1.1" width="102.95630140987001px" height="102.95630140986997px" viewBox="0 0 102.95630140987001 102.95630140986997"><g id="original-35988"><svg xmlns="http://www.w3.org/2000/svg" viewBox="0 0 400 400" xmlns:xlink="http://www.w3.org/1999/xlink" version="1.1" preserveAspectRatio="xMidYMid meet">
  <path d="M306.8 238.8l-17.2-7.2 18-7.4c2.6-1 3.8-4 2.7-6.5-1-2.6-4-3.8-6.5-2.7l-27.3 11.2-67.5-28.5 56.2-39.4 30.5 6.1c.3.1.7.1 1 .1 2.3 0 4.4-1.6 4.9-4 .5-2.7-1.2-5.3-3.9-5.9l-21.1-4.2 19.3-13.5c2.3-1.6 2.8-4.7 1.2-7-1.6-2.3-4.7-2.8-7-1.2l-18.3 12.8 4.1-20c.6-2.7-1.2-5.3-3.9-5.9-2.7-.6-5.3 1.2-5.9 3.9l-6.2 30.4-56.6 39.7-3.5-69.6 20.6-24c1.8-2.1 1.6-5.2-.5-7.1-2.1-1.8-5.2-1.6-7.1.5l-13.9 16-1.1-21.8c-.1-2.8-2.5-4.9-5.2-4.7-2.8.1-4.9 2.5-4.7 5.2l1.1 21.5-15.7-13.7c-2.1-1.8-5.2-1.6-7.1.5-1.8 2.1-1.6 5.2.5 7.1l23 20 3.6 71.5-65.2-27.4-11.9-28.5c-1.1-2.6-4-3.8-6.5-2.7-2.6 1.1-3.8 4-2.7 6.5l8 19.2-20.4-8.6c-2.5-1.1-5.5.1-6.5 2.7-1.1 2.5.1 5.5 2.7 6.5l20.6 8.6-19.6 8c-2.6 1-3.8 4-2.7 6.5.8 1.9 2.7 3.1 4.6 3.1.6 0 1.3-.1 1.9-.4l28.9-11.8 64.1 26.9-55.6 39-30.7-4.5c-2.7-.4-5.3 1.5-5.7 4.2-.4 2.7 1.5 5.3 4.2 5.7l20.2 2.9-19.2 13.5c-2.3 1.6-2.8 4.7-1.2 7 1 1.4 2.5 2.1 4.1 2.1 1 0 2-.3 2.9-.9l20.3-14.2-3.2 21.3c-.4 2.7 1.5 5.3 4.2 5.7.3 0 .5.1.8.1 2.4 0 4.6-1.8 4.9-4.3l4.6-30.7 55.2-38.7 3.7 73.5-19.1 22.1c-1.8 2.1-1.6 5.2.5 7.1.9.8 2.1 1.2 3.3 1.2 1.4 0 2.8-.6 3.8-1.7l12.3-14.2.9 17.9c.1 2.7 2.3 4.7 5 4.7h.3c2.8-.1 4.9-2.5 4.7-5.2l-1.1-21 17.4 15.2c.9.8 2.1 1.2 3.3 1.2 1.4 0 2.8-.6 3.8-1.7 1.8-2.1 1.6-5.2-.5-7.1l-24.6-21.5s-.1 0-.1-.1l-3.7-72.1 66.3 27.8 12.5 30.1c.8 1.9 2.7 3.1 4.6 3.1.6 0 1.3-.1 1.9-.4 2.6-1.1 3.8-4 2.7-6.5l-8.6-20.8 19.3 8.1c.6.3 1.3.4 1.9.4 2 0 3.8-1.2 4.6-3.1 1-2-.2-5-2.7-6z" fill="rgba(221, 221, 221, 1)" stroke="none"/>
</svg>
</g></svg></g></g>
<!-- /image 35988 -->

<!-- image 59964 -->
<g id="transformed-59964" data-image="59964" transform="translate(72.86732502070414, 33.8673250207042) rotate(10, 64.13267497929586, 64.1326749792958)"><g><svg version="1.1" width="128.2653499585917px" height="128.2653499585916px" viewBox="0 0 128.2653499585917 128.2653499585916"><g id="original-59964"><svg xmlns="http://www.w3.org/2000/svg" viewBox="0 0 400 400" xmlns:xlink="http://www.w3.org/1999/xlink" version="1.1" preserveAspectRatio="xMidYMid meet">
  <path d="M306.8 233.2c-.7-2.7-3.4-4.3-6.1-3.6L271 237l-12.8-7.7.5-23.4 13.8-.3c2.8-.1 4.9-2.4 4.9-5.1-.1-2.8-2.4-4.9-5.1-4.9l-13.4.3.5-22.8 9.6-5.1 29.5 9.7c.5.2 1 .2 1.6.2 2.1 0 4.1-1.3 4.8-3.4.9-2.6-.6-5.4-3.2-6.3l-20.5-6.7 20.7-11.1c2.4-1.3 3.3-4.3 2-6.8-1.3-2.4-4.3-3.3-6.8-2L277.5 152l6.5-19.4c.9-2.6-.5-5.5-3.2-6.3-2.6-.9-5.5.5-6.3 3.2l-9.8 29.4-9.8 5.2-18.9-11.5 8.2-13.5c1.4-2.4.7-5.4-1.7-6.9-2.4-1.4-5.4-.7-6.9 1.7l-8.2 13.5-20.9-12.6.3-14.3 22.4-22.4c2-2 2-5.1 0-7.1s-5.1-2-7.1 0l-15 15 .5-21.8c.1-2.8-2.1-5-4.9-5.1-2.7-.1-5 2.1-5.1 4.9l-.5 21.6-14.6-14.8c-1.9-2-5.1-2-7.1 0-2 1.9-2 5.1 0 7.1l21.4 21.7-.3 14.8-22.3 12.3-7.4-12.4c-1.4-2.4-4.5-3.2-6.8-1.8-2.4 1.4-3.2 4.5-1.8 6.8l7.2 12.2-19.4 10.7-12.8-7.6-7.7-29.9c-.7-2.7-3.4-4.3-6.1-3.6-2.7.7-4.3 3.4-3.6 6.1l5.2 20.1-19-11.4c-2.4-1.4-5.4-.6-6.9 1.7-1.4 2.4-.6 5.4 1.7 6.9l19.1 11.5-20.5 5.2c-2.7.7-4.3 3.4-3.6 6.1.6 2.3 2.6 3.8 4.8 3.8.4 0 .8 0 1.2-.2l30.2-7.6 13.5 8.1-.5 22.4-11.9.3c-2.8.1-4.9 2.4-4.9 5.1.1 2.7 2.3 4.9 5 4.9h.1l11.4-.3-.5 21.8-12.6 6.7-29.6-8.1c-2.7-.7-5.4.9-6.1 3.5-.7 2.7.9 5.4 3.5 6.1l19.7 5.3-20.7 11.1c-2.4 1.3-3.3 4.3-2 6.8.9 1.7 2.6 2.6 4.4 2.6.8 0 1.6-.2 2.4-.6l21.8-11.7-5.7 20.8c-.7 2.7.8 5.4 3.5 6.1.4.1.9.2 1.3.2 2.2 0 4.2-1.5 4.8-3.7l8.3-30 11.2-6 19.1 11.6-7.1 10.2c-1.6 2.3-1 5.4 1.3 7 .9.6 1.9.9 2.8.9 1.6 0 3.1-.7 4.1-2.1l7.4-10.7 21.7 13.1-.4 16.3-22.4 22.4c-2 2-2 5.1 0 7.1 1 1 2.3 1.5 3.5 1.5 1.3 0 2.6-.5 3.5-1.5l15-15-.4 18.6c-.1 2.8 2.1 5 4.9 5.1h.1c2.7 0 4.9-2.2 5-4.9l.5-18.3 14.6 14.8c1 1 2.3 1.5 3.6 1.5 1.3 0 2.5-.5 3.5-1.4 2-1.9 2-5.1 0-7.1l-21.4-21.6.4-17.3 19.6-10.8 5.4 9.4c.9 1.6 2.6 2.5 4.3 2.5.8 0 1.7-.2 2.5-.7 2.4-1.4 3.2-4.4 1.9-6.8l-5.3-9.3 20.8-11.4 12.4 7.4 7.8 30.4c.6 2.3 2.6 3.8 4.8 3.8.4 0 .8-.1 1.2-.2 2.7-.7 4.3-3.4 3.6-6.1l-5.3-20.6 16.8 10c.8.5 1.7.7 2.6.7 1.7 0 3.4-.9 4.3-2.4 1.4-2.4.6-5.4-1.7-6.9l-16.3-9.7 20-5.1c2.8-.5 4.4-3.2 3.7-5.9zm-58.5-9.7L209.2 200l40.1-21.5-1 45zm-21.8-64.8l18.2 11-39.4 21.1 1-44.4 20.2 12.3zM196.3 146l-1 45.7-39.4-23.5 40.4-22.2zm-44.8 31.2l37.4 22.4-38.3 20.5.9-42.9zm3 52.2l40.4-21.7-1 45.5-39.4-23.8zm49.4 23.9l1-44.2 38 22.8-39 21.4z" fill="rgba(221, 221, 221, 1)" stroke="none"/>
</svg>
</g></svg></g></g>
<!-- /image 59964 -->

<!-- image 03312 -->
<g id="transformed-03312" data-image="03312" transform="translate(63.78604127383218, 145.78604127383215) rotate(17, 70.21395872616782, 70.21395872616783)"><g><svg version="1.1" width="140.42791745233563px" height="140.42791745233566px" viewBox="0 0 140.42791745233563 140.42791745233566"><g id="original-03312"><svg xmlns="http://www.w3.org/2000/svg" viewBox="0 0 400 400" xmlns:xlink="http://www.w3.org/1999/xlink" version="1.1" preserveAspectRatio="xMidYMid meet">
  <path d="M285 204.4h12.4c2.8 0 5-2.2 5-5s-2.2-5-5-5h-13.8l17.4-18.9c1.9-2 1.8-5.2-.3-7.1-2-1.9-5.2-1.8-7.1.3l-23.7 25.7h-24l34.1-32.5c1.4-1.4 1.9-3.5 1.2-5.3-.7-1.9-2.4-3.2-4.4-3.3l-29.4-2.1-.9-28.3c-.1-2-1.3-3.7-3.1-4.5-1.8-.7-3.9-.3-5.4 1.1l-34.3 33.6v-23.9l24.9-23c2-1.9 2.2-5 .3-7.1-1.9-2-5-2.2-7.1-.3l-18.1 16.7v-14.7c0-2.8-2.2-5-5-5s-5 2.2-5 5v14.7l-18.1-16.7c-2-1.9-5.2-1.8-7.1.3-1.9 2-1.8 5.2.3 7.1l24.9 23v22.7L161.5 118c-1.4-1.4-3.4-1.9-5.3-1.3-1.9.7-3.2 2.4-3.3 4.4l-2.1 29.4-28.3.9c-2 .1-3.7 1.3-4.5 3.1-.7 1.8-.3 3.9 1.1 5.4l33.9 34.6h-22.7l-23.7-25.7c-1.9-2-5-2.2-7.1-.3-2 1.9-2.2 5-.3 7.1l17.4 18.9h-16.4c-2.8 0-5 2.2-5 5s2.2 5 5 5h15l-16 17.3c-1.9 2-1.8 5.2.3 7.1 1 .9 2.2 1.3 3.4 1.3 1.3 0 2.7-.5 3.7-1.6l22.3-24.1h22.3l-33.5 32c-1.4 1.4-1.9 3.5-1.2 5.3.7 1.9 2.4 3.2 4.4 3.3l29.4 2.1.9 28.3c.1 2 1.3 3.7 3.1 4.5.6.2 1.2.4 1.9.4 1.3 0 2.6-.5 3.5-1.4l34.3-33.6v25.3l-24.9 23c-2 1.9-2.2 5-.3 7.1 1.9 2 5 2.2 7.1.3l18.1-16.7v13.8c0 2.8 2.2 5 5 5s5-2.2 5-5v-13.8l18.1 16.7c1 .9 2.2 1.3 3.4 1.3 1.3 0 2.7-.5 3.7-1.6 1.9-2 1.8-5.2-.3-7.1l-24.9-23v-23.9l32.1 33.6c1 1 2.3 1.5 3.6 1.5.6 0 1.1-.1 1.7-.3 1.9-.7 3.2-2.4 3.3-4.4l2.1-29.4 28.3-.9c2-.1 3.7-1.3 4.5-3.1.7-1.8.3-3.9-1.1-5.4l-33.3-34h26.3l22.3 24.1c1 1.1 2.3 1.6 3.7 1.6 1.2 0 2.4-.4 3.4-1.3 2-1.9 2.2-5 .3-7.1L285 204.4zM237.5 153c-.3.2-.7.4-.9.7l-13.5 13.7c-1.9 2-1.9 5.1.1 7.1 1 1 2.2 1.4 3.5 1.4 1.3 0 2.6-.5 3.6-1.5l13.3-13.6 21.3 1.5-33.5 32h-27.6V167l33.1-32.5.6 18.5zm-83.8 7.4l15.4 15.1c1 1 2.2 1.4 3.5 1.4 1.3 0 2.6-.5 3.6-1.5 1.9-2 1.9-5.1-.1-7.1l-15.4-15.1 1.4-20.1 31.8 33.3v28.1H167L134.2 161l19.5-.6zm6.4 83.9c.1-.1.2-.2.4-.3l15.6-15.8c1.9-2 1.9-5.1-.1-7.1-2-1.9-5.1-1.9-7.1.1L153.3 237l-.2.2-20.4-1.4 32.9-31.4h28.2v26.7l-33.1 32.5-.6-19.3zm84.1-6.5c-.2-.2-.3-.4-.5-.6l-13.9-13.7c-2-1.9-5.1-1.9-7.1.1-1.9 2-1.9 5.1.1 7.1l13.9 13.7.2.2-1.5 20.7-31.6-33v-27.7H231l32.2 32.8-19 .4z" fill="rgba(221, 221, 221, 1)" stroke="none"/>
</svg>
</g></svg></g></g>
<!-- /image 03312 -->

<!-- image 53416 -->
<g id="transformed-53416" data-image="53416" transform="translate(-56.03029607687671, 58.969703923123305) rotate(35, 66.03029607687671, 66.0302960768767)"><g><svg version="1.1" width="132.06059215375342px" height="132.0605921537534px" viewBox="0 0 132.06059215375342 132.0605921537534"><g id="original-53416"><svg xmlns="http://www.w3.org/2000/svg" viewBox="0 0 400 400" xmlns:xlink="http://www.w3.org/1999/xlink" version="1.1" preserveAspectRatio="xMidYMid meet">
  <path d="M313.5 159.3c-.9-2.6-3.8-4-6.4-3.1l-20.4 7.1 8.7-18.9c1.2-2.5.1-5.5-2.4-6.6-2.5-1.2-5.5-.1-6.6 2.4l-12.8 27.7-19.6 6.8 9-19.4c1.2-2.5.1-5.5-2.4-6.6-2.5-1.2-5.5-.1-6.6 2.4l-11.2 24.2-29.4-23.4 20.8-16.8c2.1-1.7 2.5-4.9.8-7-1.7-2.1-4.9-2.5-7-.8l-16.2 13 2.1-19.1 24.1-19.4c2.1-1.7 2.5-4.9.8-7-1.7-2.1-4.9-2.5-7-.8l-16.2 13.1 2.5-22c.3-2.7-1.7-5.2-4.4-5.5-2.8-.3-5.2 1.7-5.5 4.4l-2.5 22.2-13.2-16.6c-1.7-2.2-4.9-2.5-7-.8-2.2 1.7-2.5 4.9-.8 7l19.5 24.4-2.2 19.2-13.2-16.6c-1.7-2.2-4.9-2.5-7-.8-2.2 1.7-2.5 4.9-.8 7l17.6 22-30.7 12-3.8-26.8c-.4-2.7-2.9-4.6-5.7-4.2-2.7.4-4.6 2.9-4.2 5.7l2.9 20.2-14-10.9-4.4-30.7c-.4-2.7-2.9-4.6-5.7-4.2-2.7.4-4.6 2.9-4.2 5.7l2.9 20.2-18.4-14.7c-2.2-1.7-5.3-1.4-7 .8-1.7 2.2-1.4 5.3.8 7l19.3 15.4-21.4 2.9c-2.7.4-4.6 2.9-4.3 5.6.3 2.5 2.5 4.3 4.9 4.3h.7l30.8-4.2 14.3 11.4-21.4 2.9c-2.7.4-4.6 2.9-4.3 5.6.3 2.5 2.5 4.3 4.9 4.3h.7l26.1-3.6-4.8 31.8-26.3-12c-2.5-1.1-5.5 0-6.6 2.5-1.1 2.5 0 5.5 2.5 6.6l20 9.1-21.3 7.4L92.1 208c-2.5-1.1-5.5 0-6.6 2.5-1.1 2.5 0 5.5 2.5 6.6l19.3 8.8-17.6 6.1c-2.6.9-4 3.8-3.1 6.4.7 2.1 2.7 3.4 4.7 3.4.5 0 1.1-.1 1.6-.3l17.3-6-8.7 18.9c-1.2 2.5-.1 5.5 2.4 6.6.7.3 1.4.5 2.1.5 1.9 0 3.7-1.1 4.5-2.9l12.8-27.7 20.8-7.3-8.4 18.2c-1.2 2.5-.1 5.5 2.4 6.6.7.3 1.4.5 2.1.5 1.9 0 3.7-1.1 4.5-2.9l11-23.9 32.1 25.6-22.3 18c-2.1 1.7-2.5 4.9-.8 7 1 1.2 2.4 1.9 3.9 1.9 1.1 0 2.2-.4 3.1-1.1l16-12.9-2.1 18.4-24.5 19.7c-2.1 1.7-2.5 4.9-.8 7 1 1.2 2.4 1.9 3.9 1.9 1.1 0 2.2-.4 3.1-1.1l16.6-13.4-2.2 19.4c-.3 2.7 1.7 5.2 4.4 5.5h.6c2.5 0 4.7-1.9 5-4.4l2.1-18.9 12.9 16.2c1 1.2 2.4 1.9 3.9 1.9 1.1 0 2.2-.4 3.1-1.1 2.2-1.7 2.5-4.9.8-7l-19.1-24 2.2-19.6 13.4 16.8c1 1.2 2.4 1.9 3.9 1.9 1.1 0 2.2-.4 3.1-1.1 2.2-1.7 2.5-4.9.8-7l-19.2-24 32.2-12.6 2.3 26.5c.2 2.6 2.4 4.6 5 4.6h.4c2.8-.2 4.8-2.7 4.5-5.4l-1.9-21.5 15 11.9 2.7 31c.2 2.6 2.4 4.6 5 4.6h.4c2.8-.2 4.8-2.7 4.5-5.4l-1.9-21.5 18.4 14.7c.9.7 2 1.1 3.1 1.1 1.5 0 2.9-.6 3.9-1.9 1.7-2.2 1.4-5.3-.8-7L275 252.9l20.3-1.7c2.8-.2 4.8-2.6 4.6-5.4-.2-2.8-2.6-4.8-5.4-4.6l-30.9 2.6-13.6-11.5 20.3-1.7c2.8-.2 4.8-2.6 4.6-5.4-.2-2.8-2.6-4.8-5.4-4.6l-27.3 2.3 4.9-32.8 25.4 11.5c.7.3 1.4.5 2.1.5 1.9 0 3.7-1.1 4.6-2.9 1.1-2.5 0-5.5-2.5-6.6l-18.8-8.5 18.3-6.4 28.8 13.1c.7.3 1.4.5 2.1.5 1.9 0 3.7-1.1 4.6-2.9 1.1-2.5 0-5.5-2.5-6.6l-19.3-8.8 20.6-7.2c2.5-1 3.9-3.9 3-6.5zm-104.1 2.2l25.2 20.1-28.5 10 3.3-30.1zm-13.2 27.9l-22.4-17.9 25.5-10-3.1 27.9zm-6.2 7.8l-26.9 9.4 4.2-27.5 22.7 18.1zm4.3 9l-3.5 30.9-25.8-20.6 29.3-10.3zm9.8 2.3l22.7 18.1-25.9 10.2 3.2-28.3zm6.3-7.9l26.5-9.3-4.1 27.1-22.4-17.8z" fill="rgba(221, 221, 221, 1)" stroke="none"/>
</svg>
</g></svg></g></g>
<!-- /image 53416 -->
</defs><rect x="0" y="0" width="250" height="250" fill="rgba(170, 100, 101, 1)"></rect><use xlink:href="#transformed-35988" transform="translate(-250, -250)"></use><use xlink:href="#transformed-35988" transform="translate(0, -250)"></use><use xlink:href="#transformed-35988" transform="translate(250, -250)"></use><use xlink:href="#transformed-35988" transform="translate(-250, 0)"></use><use xlink:href="#transformed-35988" transform="translate(0, 0)"></use><use xlink:href="#transformed-35988" transform="translate(250, 0)"></use><use xlink:href="#transformed-35988" transform="translate(-250, 250)"></use><use xlink:href="#transformed-35988" transform="translate(0, 250)"></use><use xlink:href="#transformed-35988" transform="translate(250, 250)"></use><use xlink:href="#transformed-59964" transform="translate(-250, -250)"></use><use xlink:href="#transformed-59964" transform="translate(0, -250)"></use><use xlink:href="#transformed-59964" transform="translate(250, -250)"></use><use xlink:href="#transformed-59964" transform="translate(-250, 0)"></use><use xlink:href="#transformed-59964" transform="translate(0, 0)"></use><use xlink:href="#transformed-59964" transform="translate(250, 0)"></use><use xlink:href="#transformed-59964" transform="translate(-250, 250)"></use><use xlink:href="#transformed-59964" transform="translate(0, 250)"></use><use xlink:href="#transformed-59964" transform="translate(250, 250)"></use><use xlink:href="#transformed-03312" transform="translate(-250, -250)"></use><use xlink:href="#transformed-03312" transform="translate(0, -250)"></use><use xlink:href="#transformed-03312" transform="translate(250, -250)"></use><use xlink:href="#transformed-03312" transform="translate(-250, 0)"></use><use xlink:href="#transformed-03312" transform="translate(0, 0)"></use><use xlink:href="#transformed-03312" transform="translate(250, 0)"></use><use xlink:href="#transformed-03312" transform="translate(-250, 250)"></use><use xlink:href="#transformed-03312" transform="translate(0, 250)"></use><use xlink:href="#transformed-03312" transform="translate(250, 250)"></use><use xlink:href="#transformed-53416" transform="translate(-250, -250)"></use><use xlink:href="#transformed-53416" transform="translate(0, -250)"></use><use xlink:href="#transformed-53416" transform="translate(250, -250)"></use><use xlink:href="#transformed-53416" transform="translate(-250, 0)"></use><use xlink:href="#transformed-53416" transform="translate(0, 0)"></use><use xlink:href="#transformed-53416" transform="translate(250, 0)"></use><use xlink:href="#transformed-53416" transform="translate(-250, 250)"></use><use xlink:href="#transformed-53416" transform="translate(0, 250)"></use><use xlink:href="#transformed-53416" transform="translate(250, 250)"></use></svg>